<?xml version="1.0" encoding="UTF-8"?>
<!-- Generated by jsxcad -->
<!DOCTYPE svg PUBLIC "-//W3C//DTD SVG 1.1 Tiny//EN" "http://www.w3.org/Graphics/SVG/1.1/DTD/svg11-tiny.dtd">
<svg baseProfile="tiny" height="1449.1756345177669mm" width="1599.6929905346008mm" viewBox="-799.8464952673004 -724.2284263959392 1599.6929905346008 1449.1756345177669" version="1.1" stroke="black" stroke-width=".1" fill="none" xmlns="http://www.w3.org/2000/svg">
<path fill="#000000" stroke="#000000" d="M624.9999999999999 -724.8657266317566 L624.9999999999999 -712.1469449058682 L628.6649234795879 -712.2012678851211 L628.6649234795879 -724.9200496110094 z"/>
<path fill="#000000" stroke="#000000" d="M625 711.4281631799798 L625 724.1469449058682 L625 -712.1469449058682 L625 -724.8657266317565 z"/>
<path fill="#000000" stroke="#000000" d="M628.6649234795874 711.4824861592327 L628.6649234795874 724.2012678851211 L624.9999999999999 724.1469449058682 L624.9999999999999 711.4281631799798 z"/>
<path fill="#000000" stroke="#000000" d="M643.2924810718393 710.8312773477616 L643.2924810718393 723.5500590736498 L628.6649234795874 724.2012678851211 L628.6649234795874 711.4824861592328 z"/>
<path fill="#000000" stroke="#000000" d="M657.7917300525017 709.3162308706923 L657.7917300525017 722.0350125965805 L643.2924810718393 723.5500590736499 L643.2924810718393 710.8312773477617 z"/>
<path fill="#000000" stroke="#000000" d="M672.0609686076715 706.9479736905018 L672.0609686076715 719.6667554163902 L657.7917300525017 722.0350125965805 L657.7917300525017 709.3162308706922 z"/>
<path fill="#000000" stroke="#000000" d="M686.0001082813176 703.7431174297193 L686.0001082813176 716.4618991556075 L672.0609686076714 719.6667554163902 L672.0609686076714 706.947973690502 z"/>
<path fill="#000000" stroke="#000000" d="M699.5113760238876 699.7241418523276 L699.5113760238876 712.442923578216 L686.0001082813176 716.4618991556076 L686.0001082813176 703.7431174297193 z"/>
<path fill="#000000" stroke="#000000" d="M712.5 694.9192371843725 L712.5 707.6380189102608 L699.5113760238877 712.442923578216 L699.5113760238877 699.7241418523275 z"/>
<path fill="#000000" stroke="#000000" d="M724.8748743447755 689.3621063797802 L724.8748743447755 702.0808881056685 L712.5 707.6380189102607 L712.5 694.9192371843725 z"/>
<path fill="#000000" stroke="#000000" d="M736.5491982060208 683.0917287183521 L736.5491982060208 695.8105104442403 L724.8748743447757 702.0808881056684 L724.8748743447757 689.36210637978 z"/>
<path fill="#000000" stroke="#000000" d="M747.4410845898391 676.1520863941229 L747.441084589839 688.8708681200113 L736.5491982060207 695.8105104442404 L736.5491982060207 683.0917287183521 z"/>
<path fill="#000000" stroke="#000000" d="M757.4741347390575 668.591856011871 L757.4741347390574 681.3106377377594 L747.4410845898391 688.8708681200112 L747.441084589839 676.152086394123 z"/>
<path fill="#000000" stroke="#000000" d="M766.5779740156158 660.4640671557099 L766.5779740156158 673.1828488815983 L757.4741347390574 681.3106377377594 L757.4741347390574 668.5918560118711 z"/>
<path fill="#000000" stroke="#000000" d="M774.6887455280887 651.8257304246573 L774.6887455280887 664.5445121505456 L766.5779740156158 673.1828488815983 L766.5779740156158 660.4640671557099 z"/>
<path fill="#000000" stroke="#000000" d="M781.7495580418972 642.737437544245 L781.7495580418972 655.4562192701334 L774.6887455280887 664.5445121505456 L774.6887455280887 651.8257304246573 z"/>
<path fill="#000000" stroke="#000000" d="M787.7108850304439 633.2629363591 L787.7108850304439 645.9817180849884 L781.7495580418972 655.4562192701334 L781.7495580418972 642.737437544245 z"/>
<path fill="#000000" stroke="#000000" d="M792.5309120681118 623.468683687616 L792.5309120681118 636.1874654135044 L787.710885030444 645.9817180849883 L787.710885030444 633.2629363591 z"/>
<path fill="#000000" stroke="#000000" d="M796.175830128416 613.4233791751229 L796.175830128416 626.1421609010112 L792.5309120681118 636.1874654135044 L792.5309120681118 623.468683687616 z"/>
<path fill="#000000" stroke="#000000" d="M798.6200727300336 603.1974834152344 L798.6200727300336 615.9162651411227 L796.175830128416 626.1421609010113 L796.175830128416 613.4233791751229 z"/>
<path fill="#000000" stroke="#000000" d="M799.8464952673002 592.86272371941 L799.8464952673002 605.5815054452985 L798.6200727300336 615.9162651411226 L798.6200727300336 603.1974834152344 z"/>
<path fill="#000000" stroke="#000000" d="M799.8464952673002 -606.3002871711868 L799.8464952673002 -593.5815054452985 L799.8464952673002 605.5815054452985 L799.8464952673002 592.8627237194102 z"/>
<path fill="#000000" stroke="#000000" d="M798.6200727300336 -616.635046867011 L798.6200727300336 -603.9162651411227 L799.8464952673002 -593.5815054452985 L799.8464952673002 -606.3002871711868 z"/>
<path fill="#000000" stroke="#000000" d="M796.175830128416 -626.8609426268996 L796.175830128416 -614.1421609010113 L798.6200727300336 -603.9162651411227 L798.6200727300336 -616.635046867011 z"/>
<path fill="#000000" stroke="#000000" d="M792.5309120681118 -636.9062471393926 L792.5309120681118 -624.1874654135044 L796.175830128416 -614.1421609010113 L796.175830128416 -626.8609426268995 z"/>
<path fill="#000000" stroke="#000000" d="M787.7108850304439 -646.7004998108765 L787.710885030444 -633.9817180849882 L792.5309120681118 -624.1874654135044 L792.5309120681118 -636.9062471393927 z"/>
<path fill="#000000" stroke="#000000" d="M781.7495580418973 -656.1750009960216 L781.7495580418973 -643.4562192701334 L787.710885030444 -633.9817180849882 L787.7108850304439 -646.7004998108766 z"/>
<path fill="#000000" stroke="#000000" d="M774.6887455280887 -665.2632938764339 L774.6887455280887 -652.5445121505455 L781.7495580418973 -643.4562192701333 L781.7495580418972 -656.1750009960217 z"/>
<path fill="#000000" stroke="#000000" d="M766.5779740156158 -673.9016306074865 L766.577974015616 -661.1828488815981 L774.6887455280887 -652.5445121505456 L774.6887455280887 -665.2632938764339 z"/>
<path fill="#000000" stroke="#000000" d="M757.4741347390575 -682.0294194636476 L757.4741347390576 -669.3106377377593 L766.5779740156158 -661.1828488815981 L766.577974015616 -673.9016306074864 z"/>
<path fill="#000000" stroke="#000000" d="M747.4410845898391 -689.5896498458994 L747.4410845898392 -676.870868120011 L757.4741347390575 -669.3106377377593 L757.4741347390576 -682.0294194636475 z"/>
<path fill="#000000" stroke="#000000" d="M736.549198206021 -696.5292921701287 L736.549198206021 -683.8105104442403 L747.4410845898391 -676.8708681200111 L747.4410845898391 -689.5896498458994 z"/>
<path fill="#000000" stroke="#000000" d="M724.8748743447757 -702.7996698315567 L724.8748743447758 -690.0808881056685 L736.549198206021 -683.8105104442402 L736.549198206021 -696.5292921701285 z"/>
<path fill="#000000" stroke="#000000" d="M712.5000000000001 -708.3568006361492 L712.5000000000001 -695.6380189102608 L724.8748743447757 -690.0808881056686 L724.8748743447757 -702.7996698315569 z"/>
<path fill="#000000" stroke="#000000" d="M699.5113760238879 -713.1617053041042 L699.5113760238879 -700.4429235782159 L712.5000000000001 -695.6380189102608 L712.5000000000001 -708.3568006361492 z"/>
<path fill="#000000" stroke="#000000" d="M686.0001082813178 -717.1806808814957 L686.0001082813178 -704.4618991556075 L699.5113760238879 -700.4429235782159 L699.5113760238879 -713.1617053041041 z"/>
<path fill="#000000" stroke="#000000" d="M672.0609686076717 -720.3855371422785 L672.0609686076717 -707.6667554163903 L686.0001082813179 -704.4618991556076 L686.0001082813179 -717.1806808814958 z"/>
<path fill="#000000" stroke="#000000" d="M657.7917300525021 -722.7537943224688 L657.7917300525021 -710.0350125965805 L672.0609686076718 -707.6667554163902 L672.0609686076718 -720.3855371422785 z"/>
<path fill="#000000" stroke="#000000" d="M643.2924810718397 -724.2688407995382 L643.2924810718397 -711.5500590736498 L657.7917300525021 -710.0350125965805 L657.7917300525021 -722.7537943224688 z"/>
<path fill="#000000" stroke="#000000" d="M628.6649234795879 -724.9200496110094 L628.6649234795879 -712.2012678851211 L643.2924810718397 -711.5500590736499 L643.2924810718397 -724.2688407995381 z"/>
<path fill="#000000" stroke="#000000" d="M625 -724.8657266317565 L628.6649234795879 -724.9200496110093 L643.2924810718397 -724.2688407995381 L657.7917300525021 -722.7537943224687 L672.0609686076718 -720.3855371422784 L686.0001082813179 -717.1806808814957 L699.511376023888 -713.1617053041041 L712.5000000000002 -708.3568006361489 L724.8748743447757 -702.7996698315567 L736.5491982060208 -696.5292921701287 L747.4410845898391 -689.5896498458994 L757.4741347390575 -682.0294194636476 L766.5779740156158 -673.9016306074865 L774.6887455280887 -665.2632938764339 L781.7495580418972 -656.1750009960217 L787.7108850304439 -646.7004998108765 L792.5309120681118 -636.9062471393927 L796.175830128416 -626.8609426268996 L798.6200727300336 -616.635046867011 L799.8464952673002 -606.3002871711868 L799.8464952673002 592.86272371941 L798.6200727300336 603.1974834152344 L796.175830128416 613.4233791751229 L792.5309120681118 623.468683687616 L787.7108850304439 633.2629363591 L781.7495580418972 642.7374375442452 L774.6887455280887 651.8257304246573 L766.5779740156158 660.4640671557099 L757.4741347390574 668.5918560118711 L747.441084589839 676.152086394123 L736.5491982060207 683.0917287183521 L724.8748743447755 689.3621063797801 L712.5 694.9192371843724 L699.5113760238877 699.7241418523275 L686.0001082813177 703.7431174297192 L672.0609686076715 706.9479736905017 L657.7917300525019 709.3162308706922 L643.2924810718393 710.8312773477614 L628.6649234795875 711.4824861592326 L625 711.4281631799798 z"/>
<path fill="#000000" stroke="#000000" d="M625 -712.1469449058682 L625 724.146944905868 L628.6649234795875 724.2012678851211 L643.2924810718393 723.5500590736498 L657.7917300525019 722.0350125965804 L672.0609686076715 719.6667554163902 L686.0001082813177 716.4618991556075 L699.5113760238877 712.4429235782159 L712.5 707.6380189102607 L724.8748743447755 702.0808881056685 L736.5491982060207 695.8105104442404 L747.441084589839 688.8708681200113 L757.4741347390574 681.3106377377594 L766.5779740156158 673.1828488815983 L774.6887455280887 664.5445121505456 L781.7495580418972 655.4562192701334 L787.7108850304439 645.9817180849884 L792.5309120681118 636.1874654135044 L796.175830128416 626.1421609010113 L798.6200727300336 615.9162651411227 L799.8464952673002 605.5815054452985 L799.8464952673002 -593.5815054452985 L798.6200727300336 -603.9162651411227 L796.175830128416 -614.1421609010113 L792.5309120681118 -624.1874654135044 L787.7108850304439 -633.9817180849882 L781.7495580418972 -643.4562192701333 L774.6887455280887 -652.5445121505455 L766.5779740156158 -661.1828488815981 L757.4741347390575 -669.3106377377593 L747.4410845898391 -676.8708681200111 L736.5491982060208 -683.8105104442402 L724.8748743447757 -690.0808881056684 L712.5000000000002 -695.6380189102606 L699.511376023888 -700.4429235782158 L686.0001082813179 -704.4618991556074 L672.0609686076718 -707.6667554163901 L657.7917300525021 -710.0350125965804 L643.2924810718397 -711.5500590736498 L628.6649234795879 -712.201267885121 z"/>
<path fill="#000000" stroke="#000000" d="M-624.9999999999999 711.4281631799798 L-624.9999999999999 724.1469449058682 L-628.6649234795879 724.2012678851211 L-628.6649234795879 711.4824861592327 z"/>
<path fill="#000000" stroke="#000000" d="M-625 -724.8657266317565 L-625 -712.1469449058682 L-625 724.1469449058682 L-625 711.4281631799798 z"/>
<path fill="#000000" stroke="#000000" d="M-628.6649234795874 -724.9200496110094 L-628.6649234795874 -712.2012678851211 L-624.9999999999999 -712.1469449058682 L-624.9999999999999 -724.8657266317565 z"/>
<path fill="#000000" stroke="#000000" d="M-643.2924810718393 -724.2688407995383 L-643.2924810718393 -711.5500590736499 L-628.6649234795874 -712.2012678851212 L-628.6649234795874 -724.9200496110095 z"/>
<path fill="#000000" stroke="#000000" d="M-657.7917300525017 -722.7537943224688 L-657.7917300525017 -710.0350125965806 L-643.2924810718393 -711.5500590736499 L-643.2924810718393 -724.2688407995382 z"/>
<path fill="#000000" stroke="#000000" d="M-672.0609686076715 -720.3855371422785 L-672.0609686076715 -707.6667554163902 L-657.7917300525017 -710.0350125965805 L-657.7917300525017 -722.7537943224688 z"/>
<path fill="#000000" stroke="#000000" d="M-686.0001082813176 -717.1806808814958 L-686.0001082813176 -704.4618991556076 L-672.0609686076714 -707.6667554163903 L-672.0609686076714 -720.3855371422785 z"/>
<path fill="#000000" stroke="#000000" d="M-699.5113760238876 -713.1617053041043 L-699.5113760238876 -700.442923578216 L-686.0001082813176 -704.4618991556076 L-686.0001082813176 -717.180680881496 z"/>
<path fill="#000000" stroke="#000000" d="M-712.5 -708.3568006361492 L-712.5 -695.6380189102607 L-699.5113760238877 -700.4429235782159 L-699.5113760238877 -713.1617053041043 z"/>
<path fill="#000000" stroke="#000000" d="M-724.8748743447755 -702.7996698315569 L-724.8748743447755 -690.0808881056686 L-712.5 -695.6380189102608 L-712.5 -708.3568006361492 z"/>
<path fill="#000000" stroke="#000000" d="M-736.5491982060208 -696.5292921701287 L-736.5491982060207 -683.8105104442403 L-724.8748743447757 -690.0808881056684 L-724.8748743447757 -702.7996698315567 z"/>
<path fill="#000000" stroke="#000000" d="M-747.441084589839 -689.5896498458995 L-747.441084589839 -676.8708681200112 L-736.5491982060208 -683.8105104442403 L-736.5491982060208 -696.5292921701287 z"/>
<path fill="#000000" stroke="#000000" d="M-757.4741347390574 -682.0294194636477 L-757.4741347390575 -669.3106377377593 L-747.441084589839 -676.8708681200112 L-747.4410845898391 -689.5896498458995 z"/>
<path fill="#000000" stroke="#000000" d="M-766.5779740156158 -673.9016306074865 L-766.5779740156158 -661.1828488815983 L-757.4741347390574 -669.3106377377594 L-757.4741347390574 -682.0294194636477 z"/>
<path fill="#000000" stroke="#000000" d="M-774.6887455280887 -665.263293876434 L-774.6887455280887 -652.5445121505456 L-766.5779740156158 -661.1828488815981 L-766.5779740156158 -673.9016306074866 z"/>
<path fill="#000000" stroke="#000000" d="M-781.7495580418972 -656.1750009960218 L-781.7495580418972 -643.4562192701334 L-774.6887455280887 -652.5445121505456 L-774.6887455280887 -665.263293876434 z"/>
<path fill="#000000" stroke="#000000" d="M-787.710885030444 -646.7004998108766 L-787.7108850304439 -633.9817180849883 L-781.7495580418972 -643.4562192701335 L-781.7495580418972 -656.1750009960217 z"/>
<path fill="#000000" stroke="#000000" d="M-792.5309120681118 -636.9062471393926 L-792.5309120681118 -624.1874654135044 L-787.710885030444 -633.9817180849883 L-787.7108850304439 -646.7004998108766 z"/>
<path fill="#000000" stroke="#000000" d="M-796.175830128416 -626.8609426268995 L-796.175830128416 -614.1421609010113 L-792.5309120681118 -624.1874654135044 L-792.5309120681118 -636.9062471393926 z"/>
<path fill="#000000" stroke="#000000" d="M-798.6200727300336 -616.6350468670109 L-798.6200727300336 -603.9162651411226 L-796.175830128416 -614.1421609010113 L-796.175830128416 -626.8609426268996 z"/>
<path fill="#000000" stroke="#000000" d="M-799.8464952673002 -606.3002871711867 L-799.8464952673002 -593.5815054452984 L-798.6200727300336 -603.9162651411226 L-798.6200727300336 -616.635046867011 z"/>
<path fill="#000000" stroke="#000000" d="M-799.8464952673002 592.8627237194103 L-799.8464952673002 605.5815054452986 L-799.8464952673002 -593.5815054452985 L-799.8464952673002 -606.3002871711868 z"/>
<path fill="#000000" stroke="#000000" d="M-798.6200727300336 603.1974834152344 L-798.6200727300336 615.9162651411228 L-799.8464952673002 605.5815054452985 L-799.8464952673002 592.8627237194103 z"/>
<path fill="#000000" stroke="#000000" d="M-796.175830128416 613.4233791751229 L-796.175830128416 626.1421609010113 L-798.6200727300336 615.9162651411227 L-798.6200727300336 603.1974834152344 z"/>
<path fill="#000000" stroke="#000000" d="M-792.5309120681118 623.468683687616 L-792.5309120681118 636.1874654135044 L-796.175830128416 626.1421609010112 L-796.175830128416 613.4233791751229 z"/>
<path fill="#000000" stroke="#000000" d="M-787.7108850304439 633.2629363590999 L-787.710885030444 645.9817180849883 L-792.5309120681118 636.1874654135042 L-792.5309120681118 623.468683687616 z"/>
<path fill="#000000" stroke="#000000" d="M-781.7495580418973 642.737437544245 L-781.7495580418972 655.4562192701334 L-787.7108850304439 645.9817180849882 L-787.710885030444 633.2629363590999 z"/>
<path fill="#000000" stroke="#000000" d="M-774.6887455280887 651.8257304246572 L-774.6887455280887 664.5445121505455 L-781.7495580418972 655.4562192701334 L-781.7495580418972 642.737437544245 z"/>
<path fill="#000000" stroke="#000000" d="M-766.5779740156158 660.4640671557098 L-766.5779740156158 673.1828488815981 L-774.6887455280887 664.5445121505455 L-774.6887455280887 651.8257304246572 z"/>
<path fill="#000000" stroke="#000000" d="M-757.4741347390575 668.5918560118711 L-757.4741347390576 681.3106377377593 L-766.5779740156158 673.1828488815981 L-766.5779740156158 660.4640671557099 z"/>
<path fill="#000000" stroke="#000000" d="M-747.4410845898391 676.1520863941228 L-747.4410845898392 688.8708681200111 L-757.4741347390575 681.3106377377594 L-757.4741347390575 668.591856011871 z"/>
<path fill="#000000" stroke="#000000" d="M-736.5491982060208 683.091728718352 L-736.5491982060208 695.8105104442403 L-747.4410845898391 688.8708681200111 L-747.4410845898391 676.1520863941228 z"/>
<path fill="#000000" stroke="#000000" d="M-724.8748743447757 689.3621063797801 L-724.8748743447758 702.0808881056685 L-736.549198206021 695.8105104442402 L-736.549198206021 683.091728718352 z"/>
<path fill="#000000" stroke="#000000" d="M-712.5000000000001 694.9192371843725 L-712.5000000000001 707.6380189102608 L-724.8748743447757 702.0808881056686 L-724.8748743447757 689.3621063797802 z"/>
<path fill="#000000" stroke="#000000" d="M-699.5113760238879 699.7241418523275 L-699.5113760238879 712.4429235782159 L-712.5000000000001 707.6380189102607 L-712.5000000000001 694.9192371843724 z"/>
<path fill="#000000" stroke="#000000" d="M-686.0001082813178 703.7431174297192 L-686.0001082813178 716.4618991556075 L-699.5113760238879 712.4429235782159 L-699.5113760238879 699.7241418523275 z"/>
<path fill="#000000" stroke="#000000" d="M-672.0609686076717 706.9479736905018 L-672.0609686076717 719.6667554163902 L-686.0001082813179 716.4618991556075 L-686.0001082813179 703.7431174297192 z"/>
<path fill="#000000" stroke="#000000" d="M-657.7917300525021 709.3162308706922 L-657.7917300525021 722.0350125965805 L-672.0609686076718 719.6667554163902 L-672.0609686076718 706.9479736905018 z"/>
<path fill="#000000" stroke="#000000" d="M-643.2924810718397 710.8312773477616 L-643.2924810718397 723.5500590736499 L-657.7917300525021 722.0350125965806 L-657.7917300525021 709.3162308706922 z"/>
<path fill="#000000" stroke="#000000" d="M-628.6649234795879 711.4824861592327 L-628.6649234795879 724.2012678851211 L-643.2924810718397 723.5500590736499 L-643.2924810718397 710.8312773477616 z"/>
<path fill="#000000" stroke="#000000" d="M-625 711.4281631799798 L-628.6649234795879 711.4824861592326 L-643.2924810718397 710.8312773477614 L-657.7917300525021 709.3162308706922 L-672.0609686076718 706.9479736905017 L-686.0001082813179 703.7431174297191 L-699.511376023888 699.7241418523274 L-712.5000000000002 694.9192371843723 L-724.8748743447757 689.36210637978 L-736.5491982060208 683.091728718352 L-747.4410845898391 676.1520863941228 L-757.4741347390575 668.591856011871 L-766.5779740156158 660.4640671557098 L-774.6887455280887 651.8257304246572 L-781.7495580418972 642.737437544245 L-787.7108850304439 633.2629363590999 L-792.5309120681118 623.468683687616 L-796.175830128416 613.4233791751229 L-798.6200727300336 603.1974834152344 L-799.8464952673002 592.8627237194102 L-799.8464952673002 -606.3002871711867 L-798.6200727300336 -616.635046867011 L-796.175830128416 -626.8609426268996 L-792.5309120681118 -636.9062471393927 L-787.7108850304439 -646.7004998108766 L-781.7495580418972 -656.1750009960217 L-774.6887455280887 -665.263293876434 L-766.5779740156158 -673.9016306074866 L-757.4741347390574 -682.0294194636477 L-747.441084589839 -689.5896498458995 L-736.5491982060207 -696.5292921701287 L-724.8748743447755 -702.7996698315567 L-712.5 -708.356800636149 L-699.5113760238877 -713.1617053041042 L-686.0001082813177 -717.1806808814958 L-672.0609686076715 -720.3855371422784 L-657.7917300525019 -722.7537943224687 L-643.2924810718393 -724.2688407995381 L-628.6649234795875 -724.9200496110093 L-625 -724.8657266317565 z"/>
<path fill="#000000" stroke="#000000" d="M-625 724.146944905868 L-625 -712.1469449058682 L-628.6649234795875 -712.201267885121 L-643.2924810718393 -711.5500590736498 L-657.7917300525019 -710.0350125965804 L-672.0609686076715 -707.6667554163901 L-686.0001082813177 -704.4618991556074 L-699.5113760238877 -700.4429235782158 L-712.5 -695.6380189102607 L-724.8748743447755 -690.0808881056685 L-736.5491982060207 -683.8105104442403 L-747.441084589839 -676.8708681200112 L-757.4741347390574 -669.3106377377593 L-766.5779740156158 -661.1828488815983 L-774.6887455280887 -652.5445121505456 L-781.7495580418972 -643.4562192701334 L-787.7108850304439 -633.9817180849883 L-792.5309120681118 -624.1874654135044 L-796.175830128416 -614.1421609010113 L-798.6200727300336 -603.9162651411226 L-799.8464952673002 -593.5815054452984 L-799.8464952673002 605.5815054452985 L-798.6200727300336 615.9162651411228 L-796.175830128416 626.1421609010113 L-792.5309120681118 636.1874654135044 L-787.7108850304439 645.9817180849883 L-781.7495580418972 655.4562192701333 L-774.6887455280887 664.5445121505455 L-766.5779740156158 673.1828488815981 L-757.4741347390575 681.3106377377593 L-747.4410845898391 688.8708681200111 L-736.5491982060208 695.8105104442403 L-724.8748743447757 702.0808881056684 L-712.5000000000002 707.6380189102607 L-699.511376023888 712.4429235782158 L-686.0001082813179 716.4618991556074 L-672.0609686076718 719.6667554163901 L-657.7917300525021 722.0350125965804 L-643.2924810718397 723.5500590736498 L-628.6649234795879 724.2012678851211 z"/>
<path fill="#000000" stroke="#000000" d="M-625 -601.1147208121827 L-625 -588.3959390862943 L-625 -712.228426395939 L-625 -724.9472081218273 z"/>
<path fill="#000000" stroke="#000000" d="M625 -601.1147208121827 L625 -588.3959390862944 L-625 -588.3959390862944 L-625 -601.1147208121827 z"/>
<path fill="#000000" stroke="#000000" d="M625 -724.9472081218273 L625 -712.228426395939 L625 -588.3959390862943 L625 -601.1147208121827 z"/>
<path fill="#000000" stroke="#000000" d="M-625 -724.9472081218273 L-625 -712.2284263959391 L625 -712.2284263959391 L625 -724.9472081218273 z"/>
<path fill="#000000" stroke="#000000" d="M-625 -601.1147208121827 L-625 -724.9472081218273 L625 -724.9472081218273 L625 -601.1147208121827 z"/>
<path fill="#000000" stroke="#000000" d="M-625 -588.3959390862943 L625 -588.3959390862943 L625 -712.2284263959389 L-625 -712.2284263959389 z"/>
<path fill="#000000" stroke="#000000" d="M-625 711.5096446700508 L-625 724.228426395939 L-625 600.3959390862943 L-625 587.677157360406 z"/>
<path fill="#000000" stroke="#000000" d="M625 711.5096446700508 L625 724.2284263959391 L-625 724.2284263959391 L-625 711.5096446700508 z"/>
<path fill="#000000" stroke="#000000" d="M625 587.677157360406 L625 600.3959390862943 L625 724.228426395939 L625 711.5096446700508 z"/>
<path fill="#000000" stroke="#000000" d="M-625 587.6771573604061 L-625 600.3959390862944 L625 600.3959390862944 L625 587.6771573604061 z"/>
<path fill="#000000" stroke="#000000" d="M-625 711.5096446700506 L-625 587.677157360406 L625 587.677157360406 L625 711.5096446700506 z"/>
<path fill="#000000" stroke="#000000" d="M-625 724.228426395939 L625 724.228426395939 L625 600.3959390862943 L-625 600.3959390862943 z"/>
</svg>