<?xml version="1.0" encoding="UTF-8"?>
<!-- Generated by jsxcad -->
<!DOCTYPE svg PUBLIC "-//W3C//DTD SVG 1.1 Tiny//EN" "http://www.w3.org/Graphics/SVG/1.1/DTD/svg11-tiny.dtd">
<svg baseProfile="tiny" height="1449.1756345177669mm" width="1599.8481516433326mm" viewBox="-799.8481516433321 -757.549103296771 1599.8481516433326 1449.1756345177669" version="1.1" stroke="black" stroke-width=".1" fill="none" xmlns="http://www.w3.org/2000/svg">
<path fill="#000000" stroke="#000000" d="M624.9999999999999 -691.5450497309248 L624.9999999999999 -678.8262680050366 L628.6649234795879 -678.8805909842894 L628.6649234795879 -691.5993727101777 z"/>
<path fill="#000000" stroke="#000000" d="M625 -426.9970895966302 L625 -678.8262680050365 L625 -691.5450497309248 L625 744.7488400808115 L625 757.4676218066999 L625 470.25773273839513 L625 458.9139246095496 L625 457.5206769008317 L625 293.35417943890275 L625 282.0103713100572 L625 280.6171236013393 L625 116.4506261394104 L625 105.10681801056484 L625 103.71357030184696 L625 -60.45292716008197 L625 -71.79673528892754 L625 -73.18998299764542 L625 -237.35648045957433 L625 -248.7002885884199 L625 -250.0935362971378 L625 -414.2600337590667 L625 -425.60384188791227 z"/>
<path fill="#000000" stroke="#000000" d="M628.6649234795874 744.8031630600645 L628.6649234795874 757.5219447859529 L624.9999999999999 757.4676218067 L624.9999999999999 744.7488400808116 z"/>
<path fill="#000000" stroke="#000000" d="M643.2924810718393 744.1519542485933 L643.2924810718393 756.8707359744816 L628.6649234795874 757.5219447859528 L628.6649234795874 744.8031630600644 z"/>
<path fill="#000000" stroke="#000000" d="M657.7917300525017 742.636907771524 L657.7917300525017 755.3556894974123 L643.2924810718393 756.8707359744816 L643.2924810718393 744.1519542485933 z"/>
<path fill="#000000" stroke="#000000" d="M672.0609686076715 740.2686505913337 L672.0609686076715 752.987432317222 L657.7917300525017 755.3556894974122 L657.7917300525017 742.6369077715239 z"/>
<path fill="#000000" stroke="#000000" d="M686.0001082813176 737.063794330551 L686.0001082813176 749.7825760564393 L672.0609686076714 752.987432317222 L672.0609686076714 740.2686505913337 z"/>
<path fill="#000000" stroke="#000000" d="M699.5113760238876 733.0448187531595 L699.5113760238876 745.7636004790477 L686.0001082813176 749.7825760564392 L686.0001082813176 737.0637943305511 z"/>
<path fill="#000000" stroke="#000000" d="M712.5 728.2399140852043 L712.5 740.9586958110925 L699.5113760238877 745.7636004790477 L699.5113760238877 733.0448187531593 z"/>
<path fill="#000000" stroke="#000000" d="M724.8748743447755 722.682783280612 L724.8748743447755 735.4015650065003 L712.5 740.9586958110925 L712.5 728.2399140852043 z"/>
<path fill="#000000" stroke="#000000" d="M736.5491982060207 716.4124056191838 L736.5491982060207 729.1311873450721 L724.8748743447757 735.4015650065002 L724.8748743447757 722.6827832806118 z"/>
<path fill="#000000" stroke="#000000" d="M747.4410845898391 709.4727632949547 L747.4410845898391 722.191545020843 L736.5491982060208 729.131187345072 L736.5491982060208 716.4124056191837 z"/>
<path fill="#000000" stroke="#000000" d="M757.4741347390574 701.9125329127028 L757.4741347390575 714.631314638591 L747.441084589839 722.191545020843 L747.4410845898391 709.4727632949546 z"/>
<path fill="#000000" stroke="#000000" d="M766.5779740156158 693.7847440565416 L766.5779740156158 706.50352578243 L757.4741347390574 714.6313146385912 L757.4741347390574 701.9125329127028 z"/>
<path fill="#000000" stroke="#000000" d="M774.6887455280887 685.1464073254891 L774.6887455280887 697.8651890513773 L766.5779740156158 706.50352578243 L766.5779740156158 693.7847440565416 z"/>
<path fill="#000000" stroke="#000000" d="M781.7495580418972 676.0581144450769 L781.7495580418972 688.7768961709651 L774.6887455280887 697.8651890513773 L774.6887455280887 685.1464073254891 z"/>
<path fill="#000000" stroke="#000000" d="M787.7108850304439 666.5836132599318 L787.710885030444 679.30239498582 L781.7495580418972 688.7768961709652 L781.7495580418972 676.0581144450769 z"/>
<path fill="#000000" stroke="#000000" d="M792.5309120681118 656.7893605884477 L792.5309120681118 669.508142314336 L787.7108850304439 679.30239498582 L787.710885030444 666.5836132599317 z"/>
<path fill="#000000" stroke="#000000" d="M796.175830128416 646.7440560759547 L796.175830128416 659.462837801843 L792.5309120681118 669.508142314336 L792.5309120681118 656.7893605884477 z"/>
<path fill="#000000" stroke="#000000" d="M798.6200727300336 636.5181603160661 L798.6200727300336 649.2369420419544 L796.175830128416 659.462837801843 L796.175830128416 646.7440560759546 z"/>
<path fill="#000000" stroke="#000000" d="M799.8464952673002 626.1834006202419 L799.8464952673002 638.9021823461302 L798.6200727300336 649.2369420419544 L798.6200727300336 636.5181603160661 z"/>
<path fill="#000000" stroke="#000000" d="M799.8464952673002 -414.2600337590667 L799.8464952673002 -250.0935362971378 L799.8464952673002 -250.09231418218286 L799.8464952673002 -237.35648045957433 L799.8464952673002 -73.18998299764542 L799.8464952673002 -73.18876088269049 L799.8464952673002 -60.45292716008197 L799.8464952673002 103.71357030184696 L799.8464952673002 103.71479241680188 L799.8464952673002 116.4506261394104 L799.8464952673002 280.6171236013393 L799.8464952673002 280.61834571629424 L799.8464952673002 293.35417943890275 L799.8464952673002 457.5206769008317 L799.8464952673002 457.52189901578663 L799.8464952673002 470.25773273839513 L799.8464952673002 638.9021823461302 L799.8464952673002 626.1834006202419 L799.8464952673002 -572.9796102703551 L799.8464952673002 -560.2608285444668 L799.8464952673002 -426.9970895966302 L799.8464952673002 -426.99586748167525 z"/>
<path fill="#000000" stroke="#000000" d="M798.6200727300336 -583.3143699661794 L798.6200727300336 -570.595588240291 L799.8464952673002 -560.2608285444668 L799.8464952673002 -572.979610270355 z"/>
<path fill="#000000" stroke="#000000" d="M796.175830128416 -593.5402657260678 L796.175830128416 -580.8214840001795 L798.6200727300336 -570.595588240291 L798.6200727300336 -583.3143699661794 z"/>
<path fill="#000000" stroke="#000000" d="M792.5309120681118 -603.5855702385609 L792.5309120681118 -590.8667885126727 L796.175830128416 -580.8214840001795 L796.175830128416 -593.5402657260679 z"/>
<path fill="#000000" stroke="#000000" d="M787.710885030444 -613.3798229100448 L787.7108850304439 -600.6610411841565 L792.5309120681118 -590.8667885126727 L792.5309120681118 -603.585570238561 z"/>
<path fill="#000000" stroke="#000000" d="M781.7495580418972 -622.8543240951899 L781.7495580418973 -610.1355423693016 L787.710885030444 -600.6610411841565 L787.710885030444 -613.3798229100448 z"/>
<path fill="#000000" stroke="#000000" d="M774.6887455280887 -631.942616975602 L774.6887455280887 -619.2238352497138 L781.7495580418972 -610.1355423693017 L781.7495580418972 -622.8543240951899 z"/>
<path fill="#000000" stroke="#000000" d="M766.577974015616 -640.5809537066548 L766.5779740156158 -627.8621719807664 L774.6887455280887 -619.2238352497138 L774.6887455280887 -631.942616975602 z"/>
<path fill="#000000" stroke="#000000" d="M757.4741347390575 -648.7087425628159 L757.4741347390576 -635.9899608369275 L766.577974015616 -627.8621719807664 L766.577974015616 -640.5809537066547 z"/>
<path fill="#000000" stroke="#000000" d="M747.4410845898392 -656.2689729450676 L747.4410845898392 -643.5501912191794 L757.4741347390576 -635.9899608369276 L757.4741347390575 -648.7087425628159 z"/>
<path fill="#000000" stroke="#000000" d="M736.549198206021 -663.208615269297 L736.5491982060211 -650.4898335434085 L747.4410845898391 -643.5501912191794 L747.4410845898391 -656.2689729450677 z"/>
<path fill="#000000" stroke="#000000" d="M724.8748743447758 -669.478992930725 L724.8748743447758 -656.7602112048367 L736.5491982060211 -650.4898335434085 L736.5491982060208 -663.208615269297 z"/>
<path fill="#000000" stroke="#000000" d="M712.5000000000001 -675.0361237353173 L712.5000000000001 -662.3173420094291 L724.8748743447757 -656.7602112048368 L724.8748743447757 -669.4789929307251 z"/>
<path fill="#000000" stroke="#000000" d="M699.5113760238879 -679.8410284032724 L699.5113760238879 -667.122246677384 L712.5000000000001 -662.317342009429 L712.5000000000001 -675.0361237353173 z"/>
<path fill="#000000" stroke="#000000" d="M686.0001082813178 -683.8600039806641 L686.0001082813178 -671.1412222547758 L699.5113760238879 -667.122246677384 L699.5113760238879 -679.8410284032725 z"/>
<path fill="#000000" stroke="#000000" d="M672.0609686076717 -687.0648602414467 L672.0609686076717 -674.3460785155585 L686.0001082813179 -671.1412222547758 L686.0001082813179 -683.860003980664 z"/>
<path fill="#000000" stroke="#000000" d="M657.7917300525021 -689.4331174216371 L657.7917300525021 -676.7143356957488 L672.0609686076718 -674.3460785155584 L672.0609686076718 -687.0648602414467 z"/>
<path fill="#000000" stroke="#000000" d="M643.2924810718397 -690.9481638987065 L643.2924810718397 -678.2293821728181 L657.7917300525021 -676.7143356957487 L657.7917300525021 -689.4331174216371 z"/>
<path fill="#000000" stroke="#000000" d="M628.6649234795879 -691.5993727101776 L628.6649234795879 -678.8805909842894 L643.2924810718397 -678.2293821728181 L643.2924810718397 -690.9481638987064 z"/>
<path fill="#000000" stroke="#000000" d="M625 -691.5450497309248 L628.6649234795879 -691.5993727101776 L643.2924810718397 -690.9481638987064 L657.7917300525021 -689.4331174216369 L672.0609686076718 -687.0648602414466 L686.0001082813179 -683.860003980664 L699.511376023888 -679.8410284032724 L712.5000000000002 -675.0361237353172 L724.8748743447757 -669.4789929307249 L736.5491982060208 -663.208615269297 L747.4410845898391 -656.2689729450677 L757.4741347390575 -648.7087425628159 L766.5779740156158 -640.5809537066548 L774.6887455280887 -631.9426169756022 L781.7495580418972 -622.8543240951899 L787.7108850304439 -613.3798229100448 L792.5309120681118 -603.5855702385609 L796.175830128416 -593.5402657260679 L798.6200727300336 -583.3143699661794 L799.8464952673002 -572.9796102703551 L799.8464952673002 626.1834006202419 L798.6200727300336 636.5181603160661 L796.175830128416 646.7440560759546 L792.5309120681118 656.7893605884477 L787.7108850304439 666.5836132599317 L781.7495580418972 676.0581144450769 L774.6887455280887 685.146407325489 L766.5779740156158 693.7847440565416 L757.4741347390574 701.9125329127028 L747.441084589839 709.4727632949547 L736.5491982060207 716.4124056191838 L724.8748743447755 722.6827832806118 L712.5 728.2399140852041 L699.5113760238877 733.0448187531592 L686.0001082813177 737.0637943305509 L672.0609686076715 740.2686505913335 L657.7917300525019 742.6369077715239 L643.2924810718393 744.1519542485931 L628.6649234795875 744.8031630600644 L625 744.7488400808115 z"/>
<path fill="#000000" stroke="#000000" d="M799.8464952673002 -426.99586748167525 L799.8464952673002 -426.99708959663013 L799.8464952673002 -560.2608285444668 L798.6200727300336 -570.595588240291 L796.175830128416 -580.8214840001795 L792.5309120681118 -590.8667885126725 L787.7108850304439 -600.6610411841565 L781.7495580418972 -610.1355423693016 L774.6887455280887 -619.2238352497138 L766.5779740156158 -627.8621719807664 L757.4741347390575 -635.9899608369275 L747.4410845898391 -643.5501912191793 L736.5491982060208 -650.4898335434085 L724.8748743447757 -656.7602112048367 L712.5000000000002 -662.3173420094289 L699.511376023888 -667.1222466773839 L686.0001082813179 -671.1412222547756 L672.0609686076718 -674.3460785155582 L657.7917300525021 -676.7143356957487 L643.2924810718397 -678.2293821728181 L628.6649234795879 -678.8805909842893 L625 -678.8262680050364 L625 -426.99708959663013 L625 -425.60384188791227 L625 -414.26003375906663 L625 -250.09353629713777 L625 -248.70028858841988 L625 -237.35648045957433 L625 -73.18998299764542 L625 -71.79673528892754 L625 -60.45292716008196 L625 103.71357030184696 L625 105.10681801056482 L625 116.4506261394104 L625 280.6171236013393 L625 282.01037131005717 L625 293.35417943890275 L625 457.52067690083163 L625 458.9139246095495 L625 470.25773273839513 L625 757.4676218066999 L628.6649234795875 757.5219447859528 L643.2924810718393 756.8707359744815 L657.7917300525019 755.3556894974121 L672.0609686076715 752.9874323172219 L686.0001082813177 749.7825760564392 L699.5113760238877 745.7636004790476 L712.5 740.9586958110925 L724.8748743447755 735.4015650065002 L736.5491982060207 729.1311873450721 L747.441084589839 722.191545020843 L757.4741347390574 714.6313146385911 L766.5779740156158 706.50352578243 L774.6887455280887 697.8651890513773 L781.7495580418972 688.7768961709651 L787.7108850304439 679.3023949858201 L792.5309120681118 669.508142314336 L796.175830128416 659.462837801843 L798.6200727300336 649.2369420419544 L799.8464952673002 638.9021823461302 L799.8464952673002 470.25773273839513 L799.8464952673002 457.52189901578663 L799.8464952673002 457.52067690083163 L799.8464952673002 293.35417943890275 L799.8464952673002 280.6183457162942 L799.8464952673002 280.6171236013393 L799.8464952673002 116.4506261394104 L799.8464952673002 103.71479241680187 L799.8464952673002 103.71357030184696 L799.8464952673002 -60.45292716008196 L799.8464952673002 -73.18876088269049 L799.8464952673002 -73.18998299764542 L799.8464952673002 -237.35648045957433 L799.8464952673002 -250.09231418218283 L799.8464952673002 -250.09353629713777 L799.8464952673002 -414.26003375906663 z"/>
<path fill="#000000" stroke="#000000" d="M-624.9999999999999 744.7488400808116 L-624.9999999999999 757.4676218067 L-628.6649234795879 757.5219447859528 L-628.6649234795879 744.8031630600645 z"/>
<path fill="#000000" stroke="#000000" d="M-625 -414.2600337590667 L-625 -250.0935362971378 L-625 -238.7485192404351 L-625 -237.35648045957433 L-625 -73.18998299764542 L-625 -61.8449659409427 L-625 -60.45292716008197 L-625 103.71357030184696 L-625 115.05858735854967 L-625 116.4506261394104 L-625 280.6171236013393 L-625 291.962140658042 L-625 293.35417943890275 L-625 457.5206769008317 L-625 468.8656939575344 L-625 470.25773273839513 L-625 757.4676218066999 L-625 744.7488400808115 L-625 -691.5450497309248 L-625 -678.8262680050365 L-625 -426.9970895966302 L-625 -415.6520725399274 z"/>
<path fill="#000000" stroke="#000000" d="M-628.6649234795874 -691.5993727101777 L-628.6649234795874 -678.8805909842894 L-624.9999999999999 -678.8262680050366 L-624.9999999999999 -691.5450497309248 z"/>
<path fill="#000000" stroke="#000000" d="M-643.2924810718393 -690.9481638987064 L-643.2924810718393 -678.2293821728181 L-628.6649234795874 -678.8805909842894 L-628.6649234795874 -691.5993727101777 z"/>
<path fill="#000000" stroke="#000000" d="M-657.7917300525017 -689.4331174216371 L-657.7917300525017 -676.7143356957487 L-643.2924810718393 -678.2293821728181 L-643.2924810718393 -690.9481638987065 z"/>
<path fill="#000000" stroke="#000000" d="M-672.0609686076715 -687.0648602414468 L-672.0609686076715 -674.3460785155585 L-657.7917300525017 -676.7143356957487 L-657.7917300525017 -689.4331174216371 z"/>
<path fill="#000000" stroke="#000000" d="M-686.0001082813176 -683.8600039806641 L-686.0001082813176 -671.1412222547758 L-672.0609686076714 -674.3460785155585 L-672.0609686076714 -687.0648602414468 z"/>
<path fill="#000000" stroke="#000000" d="M-699.5113760238876 -679.8410284032726 L-699.5113760238876 -667.1222466773842 L-686.0001082813176 -671.1412222547758 L-686.0001082813176 -683.8600039806641 z"/>
<path fill="#000000" stroke="#000000" d="M-712.5 -675.0361237353175 L-712.5 -662.3173420094291 L-699.5113760238877 -667.1222466773842 L-699.5113760238877 -679.8410284032726 z"/>
<path fill="#000000" stroke="#000000" d="M-724.8748743447755 -669.4789929307251 L-724.8748743447755 -656.7602112048368 L-712.5 -662.317342009429 L-712.5 -675.0361237353175 z"/>
<path fill="#000000" stroke="#000000" d="M-736.5491982060208 -663.208615269297 L-736.5491982060208 -650.4898335434086 L-724.8748743447757 -656.7602112048368 L-724.8748743447755 -669.4789929307251 z"/>
<path fill="#000000" stroke="#000000" d="M-747.4410845898391 -656.2689729450677 L-747.4410845898391 -643.5501912191795 L-736.5491982060208 -650.4898335434086 L-736.5491982060207 -663.2086152692971 z"/>
<path fill="#000000" stroke="#000000" d="M-757.4741347390575 -648.7087425628159 L-757.4741347390574 -635.9899608369277 L-747.4410845898391 -643.5501912191795 L-747.441084589839 -656.268972945068 z"/>
<path fill="#000000" stroke="#000000" d="M-766.5779740156158 -640.5809537066548 L-766.577974015616 -627.8621719807664 L-757.4741347390575 -635.9899608369276 L-757.4741347390575 -648.7087425628158 z"/>
<path fill="#000000" stroke="#000000" d="M-774.6887455280887 -631.9426169756023 L-774.6887455280887 -619.2238352497139 L-766.5779740156158 -627.8621719807666 L-766.5779740156158 -640.5809537066548 z"/>
<path fill="#000000" stroke="#000000" d="M-781.7495580418972 -622.85432409519 L-781.7495580418972 -610.1355423693017 L-774.6887455280887 -619.2238352497139 L-774.6887455280887 -631.9426169756023 z"/>
<path fill="#000000" stroke="#000000" d="M-787.7108850304439 -613.3798229100449 L-787.7108850304439 -600.6610411841566 L-781.7495580418972 -610.1355423693017 L-781.7495580418972 -622.85432409519 z"/>
<path fill="#000000" stroke="#000000" d="M-792.5309120681118 -603.5855702385609 L-792.5309120681118 -590.8667885126725 L-787.7108850304439 -600.6610411841566 L-787.7108850304439 -613.3798229100449 z"/>
<path fill="#000000" stroke="#000000" d="M-796.175830128416 -593.5402657260679 L-796.175830128416 -580.8214840001795 L-792.5309120681118 -590.8667885126727 L-792.5309120681118 -603.5855702385609 z"/>
<path fill="#000000" stroke="#000000" d="M-798.6200727300336 -583.3143699661792 L-798.6200727300336 -570.595588240291 L-796.175830128416 -580.8214840001796 L-796.175830128416 -593.5402657260679 z"/>
<path fill="#000000" stroke="#000000" d="M-799.8464952673002 -572.979610270355 L-799.8464952673002 -560.2608285444667 L-798.6200727300336 -570.5955882402909 L-798.6200727300336 -583.3143699661792 z"/>
<path fill="#000000" stroke="#000000" d="M-799.8464952673002 -426.9970895966302 L-799.8464952673002 -560.2608285444668 L-799.8464952673002 -572.979610270355 L-799.8464952673002 626.183400620242 L-799.8464952673002 638.9021823461303 L-799.8464952673002 470.25773273839513 L-799.8464952673002 470.2577195512974 L-799.8464952673002 457.5206769008317 L-799.8464952673002 293.35417943890275 L-799.8464952673002 293.354166251805 L-799.8464952673002 280.6171236013393 L-799.8464952673002 116.4506261394104 L-799.8464952673002 116.45061295231264 L-799.8464952673002 103.71357030184696 L-799.8464952673002 -60.45292716008197 L-799.8464952673002 -60.45294034717974 L-799.8464952673002 -73.18998299764542 L-799.8464952673002 -237.35648045957433 L-799.8464952673002 -237.3564936466721 L-799.8464952673002 -250.0935362971378 L-799.8464952673002 -414.2600337590667 L-799.8464952673002 -414.2600469461645 z"/>
<path fill="#000000" stroke="#000000" d="M-798.6200727300336 636.5181603160662 L-798.6200727300336 649.2369420419544 L-799.8464952673002 638.9021823461303 L-799.8464952673002 626.1834006202419 z"/>
<path fill="#000000" stroke="#000000" d="M-796.175830128416 646.7440560759546 L-796.175830128416 659.462837801843 L-798.6200727300336 649.2369420419545 L-798.6200727300336 636.5181603160662 z"/>
<path fill="#000000" stroke="#000000" d="M-792.5309120681118 656.7893605884477 L-792.5309120681118 669.508142314336 L-796.175830128416 659.462837801843 L-796.175830128416 646.7440560759547 z"/>
<path fill="#000000" stroke="#000000" d="M-787.710885030444 666.5836132599317 L-787.7108850304439 679.30239498582 L-792.5309120681118 669.5081423143362 L-792.5309120681118 656.7893605884477 z"/>
<path fill="#000000" stroke="#000000" d="M-781.7495580418973 676.0581144450766 L-781.7495580418973 688.7768961709651 L-787.710885030444 679.3023949858199 L-787.7108850304439 666.5836132599317 z"/>
<path fill="#000000" stroke="#000000" d="M-774.6887455280887 685.146407325489 L-774.6887455280887 697.8651890513773 L-781.7495580418972 688.7768961709651 L-781.7495580418973 676.0581144450767 z"/>
<path fill="#000000" stroke="#000000" d="M-766.5779740156158 693.7847440565415 L-766.5779740156158 706.50352578243 L-774.6887455280887 697.8651890513773 L-774.6887455280887 685.1464073254889 z"/>
<path fill="#000000" stroke="#000000" d="M-757.4741347390575 701.9125329127028 L-757.4741347390575 714.6313146385911 L-766.577974015616 706.5035257824298 L-766.577974015616 693.7847440565415 z"/>
<path fill="#000000" stroke="#000000" d="M-747.4410845898392 709.4727632949545 L-747.4410845898391 722.1915450208428 L-757.4741347390576 714.631314638591 L-757.4741347390575 701.9125329127028 z"/>
<path fill="#000000" stroke="#000000" d="M-736.5491982060208 716.4124056191837 L-736.549198206021 729.131187345072 L-747.4410845898391 722.1915450208428 L-747.4410845898391 709.4727632949546 z"/>
<path fill="#000000" stroke="#000000" d="M-724.8748743447758 722.6827832806117 L-724.8748743447759 735.4015650065 L-736.549198206021 729.131187345072 L-736.549198206021 716.4124056191837 z"/>
<path fill="#000000" stroke="#000000" d="M-712.5000000000001 728.2399140852042 L-712.5000000000001 740.9586958110925 L-724.8748743447757 735.4015650065003 L-724.8748743447757 722.6827832806119 z"/>
<path fill="#000000" stroke="#000000" d="M-699.5113760238879 733.0448187531593 L-699.5113760238879 745.7636004790477 L-712.5000000000001 740.9586958110925 L-712.5000000000001 728.2399140852042 z"/>
<path fill="#000000" stroke="#000000" d="M-686.0001082813178 737.063794330551 L-686.0001082813178 749.7825760564392 L-699.5113760238879 745.7636004790476 L-699.5113760238879 733.0448187531593 z"/>
<path fill="#000000" stroke="#000000" d="M-672.0609686076717 740.2686505913335 L-672.0609686076717 752.9874323172219 L-686.0001082813179 749.7825760564392 L-686.0001082813179 737.0637943305509 z"/>
<path fill="#000000" stroke="#000000" d="M-657.7917300525021 742.636907771524 L-657.7917300525021 755.3556894974123 L-672.0609686076718 752.9874323172219 L-672.0609686076718 740.2686505913335 z"/>
<path fill="#000000" stroke="#000000" d="M-643.2924810718397 744.1519542485933 L-643.2924810718397 756.8707359744816 L-657.7917300525021 755.3556894974122 L-657.7917300525021 742.636907771524 z"/>
<path fill="#000000" stroke="#000000" d="M-628.6649234795879 744.8031630600645 L-628.6649234795879 757.5219447859528 L-643.2924810718397 756.8707359744816 L-643.2924810718397 744.1519542485933 z"/>
<path fill="#000000" stroke="#000000" d="M-625 744.7488400808115 L-628.6649234795879 744.8031630600644 L-643.2924810718397 744.1519542485931 L-657.7917300525021 742.6369077715239 L-672.0609686076718 740.2686505913334 L-686.0001082813179 737.0637943305508 L-699.511376023888 733.0448187531591 L-712.5000000000002 728.2399140852041 L-724.8748743447757 722.6827832806118 L-736.5491982060208 716.4124056191837 L-747.4410845898391 709.4727632949545 L-757.4741347390575 701.9125329127027 L-766.5779740156158 693.7847440565415 L-774.6887455280887 685.1464073254889 L-781.7495580418972 676.0581144450767 L-787.7108850304439 666.5836132599317 L-792.5309120681118 656.7893605884477 L-796.175830128416 646.7440560759546 L-798.6200727300336 636.5181603160662 L-799.8464952673002 626.1834006202419 L-799.8464952673002 -572.979610270355 L-798.6200727300336 -583.3143699661792 L-796.175830128416 -593.5402657260679 L-792.5309120681118 -603.5855702385609 L-787.7108850304439 -613.3798229100449 L-781.7495580418972 -622.85432409519 L-774.6887455280887 -631.9426169756023 L-766.5779740156158 -640.5809537066549 L-757.4741347390574 -648.7087425628159 L-747.441084589839 -656.2689729450678 L-736.5491982060207 -663.208615269297 L-724.8748743447755 -669.478992930725 L-712.5 -675.0361237353173 L-699.5113760238877 -679.8410284032724 L-686.0001082813177 -683.860003980664 L-672.0609686076715 -687.0648602414467 L-657.7917300525019 -689.4331174216369 L-643.2924810718393 -690.9481638987064 L-628.6649234795875 -691.5993727101776 L-625 -691.5450497309248 z"/>
<path fill="#000000" stroke="#000000" d="M-625 -414.26003375906663 L-625 -415.65207253992736 L-625 -426.99708959663013 L-625 -678.8262680050364 L-628.6649234795875 -678.8805909842893 L-643.2924810718393 -678.2293821728181 L-657.7917300525019 -676.7143356957487 L-672.0609686076715 -674.3460785155584 L-686.0001082813177 -671.1412222547757 L-699.5113760238877 -667.122246677384 L-712.5 -662.317342009429 L-724.8748743447755 -656.7602112048368 L-736.5491982060207 -650.4898335434086 L-747.441084589839 -643.5501912191795 L-757.4741347390574 -635.9899608369276 L-766.5779740156158 -627.8621719807664 L-774.6887455280887 -619.2238352497138 L-781.7495580418972 -610.1355423693017 L-787.7108850304439 -600.6610411841566 L-792.5309120681118 -590.8667885126725 L-796.175830128416 -580.8214840001795 L-798.6200727300336 -570.5955882402909 L-799.8464952673002 -560.2608285444667 L-799.8464952673002 -426.99708959663013 L-799.8464952673002 -414.2600469461645 L-799.8464952673002 -414.26003375906663 L-799.8464952673002 -250.09353629713777 L-799.8464952673002 -237.35649364667208 L-799.8464952673002 -237.35648045957433 L-799.8464952673002 -73.18998299764542 L-799.8464952673002 -60.452940347179734 L-799.8464952673002 -60.45292716008196 L-799.8464952673002 103.71357030184696 L-799.8464952673002 116.45061295231262 L-799.8464952673002 116.4506261394104 L-799.8464952673002 280.6171236013393 L-799.8464952673002 293.35416625180494 L-799.8464952673002 293.35417943890275 L-799.8464952673002 457.52067690083163 L-799.8464952673002 470.2577195512974 L-799.8464952673002 470.25773273839513 L-799.8464952673002 638.9021823461303 L-798.6200727300336 649.2369420419545 L-796.175830128416 659.462837801843 L-792.5309120681118 669.508142314336 L-787.7108850304439 679.30239498582 L-781.7495580418972 688.7768961709651 L-774.6887455280887 697.8651890513773 L-766.5779740156158 706.50352578243 L-757.4741347390575 714.631314638591 L-747.4410845898391 722.1915450208428 L-736.5491982060208 729.131187345072 L-724.8748743447757 735.4015650065 L-712.5000000000002 740.9586958110924 L-699.511376023888 745.7636004790475 L-686.0001082813179 749.7825760564391 L-672.0609686076718 752.9874323172218 L-657.7917300525021 755.3556894974121 L-643.2924810718397 756.8707359744815 L-628.6649234795879 757.5219447859528 L-625 757.4676218066999 L-625 470.25773273839513 L-625 468.8656939575344 L-625 457.52067690083163 L-625 293.35417943890275 L-625 291.962140658042 L-625 280.6171236013393 L-625 116.4506261394104 L-625 115.05858735854967 L-625 103.71357030184696 L-625 -60.45292716008196 L-625 -61.84496594094269 L-625 -73.18998299764542 L-625 -237.35648045957433 L-625 -238.74851924043506 L-625 -250.09353629713777 z"/>
<path fill="#000000" stroke="#000000" d="M-625 -567.794043911351 L-625 -555.0752621854626 L-625 -678.9077494951073 L-625 -691.6265312209956 z"/>
<path fill="#000000" stroke="#000000" d="M625 -567.794043911351 L625 -555.0752621854627 L-625 -555.0752621854627 L-625 -567.794043911351 z"/>
<path fill="#000000" stroke="#000000" d="M625 -691.6265312209956 L625 -678.9077494951073 L625 -555.0752621854626 L625 -567.794043911351 z"/>
<path fill="#000000" stroke="#000000" d="M-625 -691.6265312209956 L-625 -678.9077494951074 L625 -678.9077494951074 L625 -691.6265312209956 z"/>
<path fill="#000000" stroke="#000000" d="M-625 -567.7940439113509 L-625 -691.6265312209955 L625 -691.6265312209955 L625 -567.7940439113509 z"/>
<path fill="#000000" stroke="#000000" d="M-625 -555.0752621854626 L625 -555.0752621854626 L625 -678.9077494951072 L-625 -678.9077494951072 z"/>
<path fill="#000000" stroke="#000000" d="M-625 744.8303215708825 L-625 757.5491032967708 L-625 633.7166159871261 L-625 620.9978342612378 z"/>
<path fill="#000000" stroke="#000000" d="M625 744.8303215708825 L625 757.5491032967708 L-625 757.5491032967708 L-625 744.8303215708825 z"/>
<path fill="#000000" stroke="#000000" d="M625 620.9978342612378 L625 633.7166159871261 L625 757.5491032967708 L625 744.8303215708825 z"/>
<path fill="#000000" stroke="#000000" d="M-625 620.9978342612378 L-625 633.7166159871261 L625 633.7166159871261 L625 620.9978342612378 z"/>
<path fill="#000000" stroke="#000000" d="M-625 744.8303215708823 L-625 620.9978342612377 L625 620.9978342612377 L625 744.8303215708823 z"/>
<path fill="#000000" stroke="#000000" d="M-625 757.5491032967708 L625 757.5491032967708 L625 633.716615987126 L-625 633.716615987126 z"/>
<path fill="#000000" stroke="#000000" d="M702.7554342368161 528.1537463109196 L-697.2445657631839 528.1537463109196 L-697.2445657631839 540.8908021484831 L702.7554342368161 540.8908021484831 z"/>
<path fill="#000000" stroke="#000000" d="M713.7353557818407 527.5108668406999 L702.7554342368159 528.1537463109196 L702.7554342368159 540.8908021484831 L713.7353557818407 540.2479226782633 z"/>
<path fill="#000000" stroke="#000000" d="M724.5485487140799 526.018401275834 L713.7353557818407 527.5108668406998 L713.7353557818407 540.2479226782634 L724.5485487140799 538.7554571133976 z"/>
<path fill="#000000" stroke="#000000" d="M735.0637555192753 523.6944661265321 L724.5485487140799 526.0184012758341 L724.5485487140799 538.7554571133975 L735.0637555192753 536.4315219640956 z"/>
<path fill="#000000" stroke="#000000" d="M745.1533358310888 520.5672708174206 L735.0637555192753 523.6944661265321 L735.0637555192753 536.4315219640956 L745.1533358310888 533.3043266549842 z"/>
<path fill="#000000" stroke="#000000" d="M754.6948158122426 516.6747752633412 L745.1533358310888 520.5672708174206 L745.1533358310888 533.3043266549842 L754.6948158122426 529.4118311009047 z"/>
<path fill="#000000" stroke="#000000" d="M763.5723748209969 512.0642290874061 L754.6948158122427 516.6747752633412 L754.6948158122427 529.4118311009047 L763.5723748209969 524.8012849249695 z"/>
<path fill="#000000" stroke="#000000" d="M771.6782513168453 506.79159807457984 L763.5723748209969 512.0642290874061 L763.5723748209969 524.8012849249697 L771.6782513168453 519.5286539121433 z"/>
<path fill="#000000" stroke="#000000" d="M778.9140509396395 500.9208848228629 L771.6782513168453 506.7915980745799 L771.6782513168453 519.5286539121433 L778.9140509396395 513.6579406604263 z"/>
<path fill="#000000" stroke="#000000" d="M785.1919408838328 494.52335183845213 L778.9140509396395 500.9208848228629 L778.9140509396395 513.6579406604263 L785.1919408838328 507.2604076760156 z"/>
<path fill="#000000" stroke="#000000" d="M790.4357160697579 487.6766565054505 L785.1919408838328 494.52335183845213 L785.1919408838328 507.2604076760156 L790.4357160697579 500.41371234301397 z"/>
<path fill="#000000" stroke="#000000" d="M794.5817241700636 480.46390843042127 L790.4357160697579 487.67665650545047 L790.4357160697579 500.41371234301397 L794.5817241700636 493.2009642679847 z"/>
<path fill="#000000" stroke="#000000" d="M797.5796382627436 472.97266060434794 L794.5817241700636 480.46390843042127 L794.5817241700636 493.2009642679847 L797.5796382627436 485.70971644191144 z"/>
<path fill="#000000" stroke="#000000" d="M799.393067731795 465.2938466279258 L797.5796382627436 472.97266060434794 L797.5796382627435 485.70971644191144 L799.3930677317949 478.03090246548925 z"/>
<path fill="#000000" stroke="#000000" d="M800 457.5206769008317 L799.393067731795 465.2938466279258 L799.393067731795 478.0309024654892 L800 470.25773273839513 z"/>
<path fill="#000000" stroke="#000000" d="M-799.8481516433317 457.5206769008317 L800 457.5206769008317 L800 470.25773273839513 L-799.8481516433317 470.25773273839513 z"/>
<path fill="#000000" stroke="#000000" d="M-799.8481516433317 461.4131724549111 L-799.8481516433317 457.5206769008317 L-799.8481516433317 470.25773273839513 L-799.8481516433317 474.15022829247454 z"/>
<path fill="#000000" stroke="#000000" d="M-798.6361303402723 469.1509139399576 L-799.8481516433317 461.4131724549111 L-799.8481516433317 474.1502282924745 L-798.6361303402723 481.8879697775211 z"/>
<path fill="#000000" stroke="#000000" d="M-796.226800030925 476.7474801020858 L-798.6361303402723 469.1509139399576 L-798.6361303402723 481.88796977752105 L-796.226800030925 489.4845359396492 z"/>
<path fill="#000000" stroke="#000000" d="M-792.6494067214802 484.11065891866855 L-796.226800030925 476.7474801020858 L-796.226800030925 489.4845359396492 L-792.6494067214802 496.847714756232 z"/>
<path fill="#000000" stroke="#000000" d="M-787.947375120649 491.151071373299 L-792.6494067214802 484.11065891866855 L-792.6494067214802 496.84771475623205 L-787.9473751206489 503.8881272108624 z"/>
<path fill="#000000" stroke="#000000" d="M-782.1777815225246 497.7832563959733 L-787.947375120649 491.151071373299 L-787.947375120649 503.8881272108624 L-782.1777815225246 510.5203122335368 z"/>
<path fill="#000000" stroke="#000000" d="M-775.4106609776896 503.9267082447122 L-782.1777815225246 497.7832563959733 L-782.1777815225246 510.52031223353674 L-775.4106609776896 516.6637640822756 z"/>
<path fill="#000000" stroke="#000000" d="M-767.7281571625741 509.5068537362123 L-775.4106609776896 503.92670824471213 L-775.4106609776896 516.6637640822756 L-767.7281571625741 522.2439095737758 z"/>
<path fill="#000000" stroke="#000000" d="M-759.2235252664981 514.4559574632723 L-767.7281571625741 509.50685373621235 L-767.7281571625741 522.2439095737758 L-759.2235252664981 527.1930133008358 z"/>
<path fill="#000000" stroke="#000000" d="M-749.9999999999999 518.7139440108793 L-759.223525266498 514.4559574632724 L-759.223525266498 527.1930133008358 L-749.9999999999999 531.4509998484427 z"/>
<path fill="#000000" stroke="#000000" d="M-740.1695424652969 522.2291271903667 L-749.9999999999999 518.7139440108793 L-749.9999999999999 531.4509998484427 L-740.1695424652969 534.9661830279301 z"/>
<path fill="#000000" stroke="#000000" d="M-729.8514811001694 524.9588374397288 L-740.1695424652969 522.2291271903666 L-740.1695424652969 534.9661830279301 L-729.8514811001694 537.6958932772923 z"/>
<path fill="#000000" stroke="#000000" d="M-719.1710631923737 526.869939774302 L-729.8514811001694 524.9588374397289 L-729.8514811001694 537.6958932772923 L-719.1710631923737 539.6069956118654 z"/>
<path fill="#000000" stroke="#000000" d="M-708.2579345472332 527.9392360005922 L-719.1710631923737 526.869939774302 L-719.1710631923737 539.6069956118654 L-708.2579345472332 540.6762918381556 z"/>
<path fill="#000000" stroke="#000000" d="M-697.2445657631837 528.1537463109196 L-708.2579345472332 527.9392360005922 L-708.2579345472332 540.6762918381557 L-697.2445657631837 540.890802148483 z"/>
<path fill="#000000" stroke="#000000" d="M702.7554342368161 540.8908021484831 L-697.2445657631839 540.8908021484831 L-708.2579345472333 540.6762918381557 L-719.1710631923738 539.6069956118655 L-729.8514811001695 537.6958932772923 L-740.169542465297 534.9661830279301 L-750 531.4509998484427 L-759.2235252664981 527.1930133008358 L-767.7281571625741 522.2439095737758 L-775.4106609776896 516.6637640822756 L-782.1777815225246 510.5203122335368 L-787.947375120649 503.8881272108625 L-792.6494067214802 496.84771475623205 L-796.226800030925 489.4845359396493 L-798.6361303402723 481.8879697775211 L-799.8481516433317 474.1502282924746 L-799.8481516433317 470.2577327383952 L800 470.2577327383952 L799.393067731795 478.03090246548925 L797.5796382627436 485.70971644191144 L794.5817241700636 493.2009642679848 L790.4357160697579 500.41371234301397 L785.1919408838328 507.26040767601563 L778.9140509396395 513.6579406604263 L771.6782513168453 519.5286539121433 L763.5723748209969 524.8012849249697 L754.6948158122427 529.4118311009047 L745.153335831089 533.3043266549842 L735.0637555192754 536.4315219640956 L724.54854871408 538.7554571133976 L713.7353557818408 540.2479226782634 z"/>
<path fill="#000000" stroke="#000000" d="M-697.2445657631839 528.1537463109196 L702.7554342368161 528.1537463109196 L713.7353557818408 527.5108668406999 L724.54854871408 526.0184012758341 L735.0637555192754 523.6944661265322 L745.153335831089 520.5672708174208 L754.6948158122427 516.6747752633413 L763.5723748209969 512.0642290874061 L771.6782513168453 506.79159807457995 L778.9140509396395 500.92088482286294 L785.1919408838328 494.5233518384522 L790.4357160697579 487.6766565054505 L794.5817241700636 480.4639084304213 L797.5796382627436 472.972660604348 L799.393067731795 465.2938466279258 L800 457.5206769008317 L-799.8481516433317 457.5206769008317 L-799.8481516433317 461.4131724549111 L-798.6361303402723 469.15091393995766 L-796.226800030925 476.74748010208583 L-792.6494067214802 484.1106589186686 L-787.947375120649 491.15107137329903 L-782.1777815225246 497.78325639597335 L-775.4106609776896 503.92670824471224 L-767.7281571625741 509.50685373621235 L-759.2235252664981 514.4559574632724 L-750 518.7139440108793 L-740.169542465297 522.2291271903667 L-729.8514811001695 524.9588374397289 L-719.1710631923738 526.869939774302 L-708.2579345472333 527.9392360005924 z"/>
<path fill="#000000" stroke="#000000" d="M702.7554342368161 351.25019301142726 L-697.2445657631839 351.25019301142726 L-697.2445657631839 363.9872488489907 L702.7554342368161 363.9872488489907 z"/>
<path fill="#000000" stroke="#000000" d="M713.7353557818407 350.6073135412076 L702.7554342368159 351.25019301142726 L702.7554342368159 363.9872488489907 L713.7353557818407 363.344369378771 z"/>
<path fill="#000000" stroke="#000000" d="M724.5485487140799 349.1148479763417 L713.7353557818407 350.60731354120753 L713.7353557818407 363.34436937877103 L724.5485487140799 361.8519038139052 z"/>
<path fill="#000000" stroke="#000000" d="M735.0637555192753 346.7909128270398 L724.5485487140799 349.11484797634176 L724.5485487140799 361.85190381390515 L735.0637555192753 359.52796866460324 z"/>
<path fill="#000000" stroke="#000000" d="M745.1533358310888 343.6637175179284 L735.0637555192753 346.79091282703985 L735.0637555192753 359.5279686646033 L745.1533358310888 356.4007733554918 z"/>
<path fill="#000000" stroke="#000000" d="M754.6948158122426 339.7712219638489 L745.1533358310888 343.6637175179283 L745.1533358310888 356.4007733554918 L754.6948158122426 352.50827780141236 z"/>
<path fill="#000000" stroke="#000000" d="M763.5723748209969 335.16067578791376 L754.6948158122427 339.77122196384886 L754.6948158122427 352.50827780141236 L763.5723748209969 347.8977316254772 z"/>
<path fill="#000000" stroke="#000000" d="M771.6782513168453 329.8880447750875 L763.5723748209969 335.1606757879138 L763.5723748209969 347.89773162547726 L771.6782513168453 342.625100612651 z"/>
<path fill="#000000" stroke="#000000" d="M778.9140509396395 324.0173315233705 L771.6782513168453 329.88804477508756 L771.6782513168453 342.625100612651 L778.9140509396395 336.75438736093395 z"/>
<path fill="#000000" stroke="#000000" d="M785.1919408838328 317.61979853895974 L778.9140509396395 324.0173315233705 L778.9140509396395 336.75438736093395 L785.1919408838328 330.35685437652324 z"/>
<path fill="#000000" stroke="#000000" d="M790.4357160697579 310.77310320595814 L785.1919408838328 317.61979853895974 L785.1919408838328 330.3568543765232 L790.4357160697579 323.5101590435216 z"/>
<path fill="#000000" stroke="#000000" d="M794.5817241700636 303.5603551309289 L790.4357160697579 310.7731032059581 L790.4357160697579 323.5101590435216 L794.5817241700636 316.29741096849233 z"/>
<path fill="#000000" stroke="#000000" d="M797.5796382627436 296.06910730485555 L794.5817241700636 303.5603551309289 L794.5817241700636 316.29741096849233 L797.5796382627436 308.806163142419 z"/>
<path fill="#000000" stroke="#000000" d="M799.393067731795 288.3902933284334 L797.5796382627436 296.06910730485555 L797.5796382627436 308.806163142419 L799.393067731795 301.12734916599686 z"/>
<path fill="#000000" stroke="#000000" d="M800 280.6171236013393 L799.393067731795 288.3902933284334 L799.393067731795 301.12734916599686 L800 293.35417943890275 z"/>
<path fill="#000000" stroke="#000000" d="M-799.8481516433317 280.6171236013393 L800 280.6171236013393 L800 293.35417943890275 L-799.8481516433317 293.35417943890275 z"/>
<path fill="#000000" stroke="#000000" d="M-799.8481516433317 284.5096191554187 L-799.8481516433317 280.6171236013393 L-799.8481516433317 293.35417943890275 L-799.8481516433317 297.2466749929822 z"/>
<path fill="#000000" stroke="#000000" d="M-798.6361303402723 292.2473606404653 L-799.8481516433317 284.5096191554187 L-799.8481516433317 297.24667499298215 L-798.6361303402723 304.9844164780287 z"/>
<path fill="#000000" stroke="#000000" d="M-796.226800030925 299.84392680259344 L-798.6361303402723 292.2473606404653 L-798.6361303402723 304.9844164780287 L-796.226800030925 312.5809826401569 z"/>
<path fill="#000000" stroke="#000000" d="M-792.6494067214802 307.20710561917616 L-796.226800030925 299.84392680259344 L-796.226800030925 312.5809826401569 L-792.6494067214802 319.9441614567396 z"/>
<path fill="#000000" stroke="#000000" d="M-787.947375120649 314.2475180738066 L-792.6494067214802 307.2071056191762 L-792.6494067214802 319.9441614567396 L-787.947375120649 326.98457391137003 z"/>
<path fill="#000000" stroke="#000000" d="M-782.1777815225246 320.8797030964809 L-787.947375120649 314.2475180738066 L-787.947375120649 326.98457391137003 L-782.1777815225246 333.61675893404436 z"/>
<path fill="#000000" stroke="#000000" d="M-775.4106609776896 327.0231549452198 L-782.1777815225246 320.8797030964809 L-782.1777815225246 333.6167589340444 L-775.4106609776896 339.76021078278325 z"/>
<path fill="#000000" stroke="#000000" d="M-767.7281571625741 332.6033004367199 L-775.4106609776896 327.0231549452198 L-775.4106609776896 339.76021078278325 L-767.7281571625741 345.3403562742834 z"/>
<path fill="#000000" stroke="#000000" d="M-759.2235252664981 337.55240416377995 L-767.7281571625741 332.6033004367199 L-767.7281571625741 345.3403562742834 L-759.2235252664981 350.2894600013434 z"/>
<path fill="#000000" stroke="#000000" d="M-749.9999999999999 341.8103907113869 L-759.223525266498 337.55240416377995 L-759.223525266498 350.2894600013434 L-749.9999999999999 354.54744654895035 z"/>
<path fill="#000000" stroke="#000000" d="M-740.1695424652969 345.32557389087424 L-749.9999999999999 341.81039071138684 L-749.9999999999999 354.5474465489504 L-740.1695424652969 358.0626297284378 z"/>
<path fill="#000000" stroke="#000000" d="M-729.8514811001694 348.05528414023644 L-740.1695424652969 345.3255738908743 L-740.1695424652969 358.06262972843774 L-729.8514811001694 360.7923399777999 z"/>
<path fill="#000000" stroke="#000000" d="M-719.1710631923737 349.9663864748096 L-729.8514811001694 348.0552841402365 L-729.8514811001694 360.7923399777999 L-719.1710631923737 362.70344231237306 z"/>
<path fill="#000000" stroke="#000000" d="M-708.2579345472332 351.0356827010999 L-719.1710631923737 349.96638647480967 L-719.1710631923737 362.70344231237306 L-708.2579345472332 363.77273853866336 z"/>
<path fill="#000000" stroke="#000000" d="M-697.2445657631837 351.25019301142726 L-708.2579345472332 351.0356827011 L-708.2579345472332 363.77273853866336 L-697.2445657631837 363.98724884899065 z"/>
<path fill="#000000" stroke="#000000" d="M702.7554342368161 363.9872488489907 L-697.2445657631839 363.9872488489907 L-708.2579345472333 363.7727385386634 L-719.1710631923738 362.7034423123731 L-729.8514811001695 360.79233997779994 L-740.169542465297 358.0626297284378 L-750 354.5474465489504 L-759.2235252664981 350.28946000134346 L-767.7281571625741 345.3403562742834 L-775.4106609776896 339.7602107827833 L-782.1777815225246 333.6167589340444 L-787.947375120649 326.9845739113701 L-792.6494067214802 319.94416145673966 L-796.226800030925 312.5809826401569 L-798.6361303402723 304.9844164780287 L-799.8481516433317 297.2466749929822 L-799.8481516433317 293.35417943890275 L800 293.35417943890275 L799.393067731795 301.12734916599686 L797.5796382627436 308.80616314241905 L794.5817241700636 316.2974109684924 L790.4357160697579 323.5101590435216 L785.1919408838328 330.35685437652324 L778.9140509396395 336.754387360934 L771.6782513168453 342.625100612651 L763.5723748209969 347.89773162547726 L754.6948158122427 352.50827780141236 L745.153335831089 356.4007733554918 L735.0637555192754 359.5279686646033 L724.54854871408 361.8519038139052 L713.7353557818408 363.34436937877103 z"/>
<path fill="#000000" stroke="#000000" d="M-697.2445657631839 351.25019301142726 L702.7554342368161 351.25019301142726 L713.7353557818408 350.6073135412076 L724.54854871408 349.11484797634176 L735.0637555192754 346.79091282703985 L745.153335831089 343.6637175179284 L754.6948158122427 339.7712219638489 L763.5723748209969 335.1606757879138 L771.6782513168453 329.88804477508756 L778.9140509396395 324.01733152337056 L785.1919408838328 317.6197985389598 L790.4357160697579 310.77310320595814 L794.5817241700636 303.56035513092894 L797.5796382627436 296.0691073048556 L799.393067731795 288.3902933284334 L800 280.6171236013393 L-799.8481516433317 280.6171236013393 L-799.8481516433317 284.5096191554187 L-798.6361303402723 292.2473606404653 L-796.226800030925 299.84392680259344 L-792.6494067214802 307.2071056191762 L-787.947375120649 314.24751807380665 L-782.1777815225246 320.87970309648097 L-775.4106609776896 327.0231549452198 L-767.7281571625741 332.60330043671996 L-759.2235252664981 337.55240416378 L-750 341.81039071138696 L-740.169542465297 345.32557389087435 L-729.8514811001695 348.0552841402365 L-719.1710631923738 349.96638647480967 L-708.2579345472333 351.0356827011 z"/>
<path fill="#000000" stroke="#000000" d="M702.7554342368161 174.34663971193487 L-697.2445657631839 174.34663971193487 L-697.2445657631839 187.08369554949832 L702.7554342368161 187.08369554949832 z"/>
<path fill="#000000" stroke="#000000" d="M713.7353557818407 173.70376024171517 L702.7554342368159 174.34663971193487 L702.7554342368159 187.08369554949832 L713.7353557818407 186.44081607927865 z"/>
<path fill="#000000" stroke="#000000" d="M724.5485487140799 172.21129467684935 L713.7353557818407 173.7037602417152 L713.7353557818407 186.44081607927862 L724.5485487140799 184.9483505144128 z"/>
<path fill="#000000" stroke="#000000" d="M735.0637555192753 169.88735952754743 L724.5485487140799 172.21129467684938 L724.5485487140799 184.9483505144128 L735.0637555192753 182.62441536511088 z"/>
<path fill="#000000" stroke="#000000" d="M745.1533358310888 166.760164218436 L735.0637555192753 169.88735952754743 L735.0637555192753 182.62441536511088 L745.1533358310888 179.49722005599943 z"/>
<path fill="#000000" stroke="#000000" d="M754.6948158122426 162.86766866435656 L745.1533358310888 166.760164218436 L745.1533358310888 179.49722005599943 L754.6948158122426 175.60472450191997 z"/>
<path fill="#000000" stroke="#000000" d="M763.5723748209969 158.25712248842143 L754.6948158122427 162.86766866435653 L754.6948158122427 175.60472450191997 L763.5723748209969 170.99417832598488 z"/>
<path fill="#000000" stroke="#000000" d="M771.6782513168453 152.98449147559518 L763.5723748209969 158.25712248842143 L763.5723748209969 170.99417832598488 L771.6782513168453 165.72154731315862 z"/>
<path fill="#000000" stroke="#000000" d="M778.9140509396395 147.11377822387814 L771.6782513168453 152.98449147559518 L771.6782513168453 165.72154731315862 L778.9140509396395 159.85083406144162 z"/>
<path fill="#000000" stroke="#000000" d="M785.1919408838328 140.7162452394674 L778.9140509396395 147.11377822387817 L778.9140509396395 159.85083406144162 L785.1919408838328 153.45330107703086 z"/>
<path fill="#000000" stroke="#000000" d="M790.4357160697579 133.86954990646578 L785.1919408838328 140.71624523946738 L785.1919408838328 153.45330107703083 L790.4357160697579 146.6066057440292 z"/>
<path fill="#000000" stroke="#000000" d="M794.5817241700636 126.65680183143654 L790.4357160697579 133.86954990646578 L790.4357160697579 146.6066057440292 L794.5817241700636 139.393857669 z"/>
<path fill="#000000" stroke="#000000" d="M797.5796382627436 119.16555400536322 L794.5817241700636 126.65680183143654 L794.5817241700636 139.393857669 L797.5796382627436 131.90260984292667 z"/>
<path fill="#000000" stroke="#000000" d="M799.393067731795 111.48674002894106 L797.5796382627436 119.16555400536322 L797.5796382627436 131.90260984292667 L799.393067731795 124.2237958665045 z"/>
<path fill="#000000" stroke="#000000" d="M800 103.71357030184694 L799.393067731795 111.48674002894104 L799.393067731795 124.2237958665045 L800 116.4506261394104 z"/>
<path fill="#000000" stroke="#000000" d="M-799.8481516433317 103.71357030184694 L800 103.71357030184694 L800 116.4506261394104 L-799.8481516433317 116.4506261394104 z"/>
<path fill="#000000" stroke="#000000" d="M-799.8481516433317 107.60606585592636 L-799.8481516433317 103.71357030184696 L-799.8481516433317 116.4506261394104 L-799.8481516433317 120.34312169348982 z"/>
<path fill="#000000" stroke="#000000" d="M-798.6361303402723 115.3438073409729 L-799.8481516433317 107.60606585592636 L-799.8481516433317 120.3431216934898 L-798.6361303402723 128.08086317853633 z"/>
<path fill="#000000" stroke="#000000" d="M-796.226800030925 122.94037350310106 L-798.6361303402723 115.3438073409729 L-798.6361303402723 128.08086317853633 L-796.226800030925 135.6774293406645 z"/>
<path fill="#000000" stroke="#000000" d="M-792.6494067214802 130.30355231968383 L-796.226800030925 122.94037350310107 L-796.226800030925 135.6774293406645 L-792.6494067214802 143.04060815724728 z"/>
<path fill="#000000" stroke="#000000" d="M-787.947375120649 137.34396477431423 L-792.6494067214802 130.30355231968383 L-792.6494067214802 143.04060815724728 L-787.947375120649 150.0810206118777 z"/>
<path fill="#000000" stroke="#000000" d="M-782.1777815225246 143.97614979698858 L-787.947375120649 137.34396477431423 L-787.947375120649 150.08102061187768 L-782.1777815225246 156.71320563455203 z"/>
<path fill="#000000" stroke="#000000" d="M-775.4106609776896 150.11960164572744 L-782.1777815225246 143.97614979698855 L-782.1777815225246 156.713205634552 L-775.4106609776896 162.8566574832909 z"/>
<path fill="#000000" stroke="#000000" d="M-767.7281571625741 155.6997471372276 L-775.4106609776896 150.11960164572744 L-775.4106609776896 162.8566574832909 L-767.7281571625741 168.43680297479105 z"/>
<path fill="#000000" stroke="#000000" d="M-759.2235252664981 160.64885086428762 L-767.7281571625741 155.6997471372276 L-767.7281571625741 168.43680297479105 L-759.2235252664981 173.38590670185107 z"/>
<path fill="#000000" stroke="#000000" d="M-749.9999999999999 164.9068374118946 L-759.223525266498 160.64885086428765 L-759.223525266498 173.3859067018511 L-749.9999999999999 177.64389324945802 z"/>
<path fill="#000000" stroke="#000000" d="M-740.1695424652969 168.42202059138194 L-749.9999999999999 164.90683741189457 L-749.9999999999999 177.643893249458 L-740.1695424652969 181.15907642894535 z"/>
<path fill="#000000" stroke="#000000" d="M-729.8514811001694 171.1517308407441 L-740.1695424652969 168.42202059138197 L-740.1695424652969 181.1590764289454 L-729.8514811001694 183.88878667830755 z"/>
<path fill="#000000" stroke="#000000" d="M-719.1710631923737 173.06283317531725 L-729.8514811001694 171.15173084074408 L-729.8514811001694 183.88878667830758 L-719.1710631923737 185.79988901288073 z"/>
<path fill="#000000" stroke="#000000" d="M-708.2579345472332 174.13212940160759 L-719.1710631923737 173.06283317531728 L-719.1710631923737 185.79988901288073 L-708.2579345472332 186.86918523917103 z"/>
<path fill="#000000" stroke="#000000" d="M-697.2445657631837 174.34663971193487 L-708.2579345472332 174.13212940160756 L-708.2579345472332 186.86918523917103 L-697.2445657631837 187.08369554949834 z"/>
<path fill="#000000" stroke="#000000" d="M702.7554342368161 187.08369554949832 L-697.2445657631839 187.08369554949832 L-708.2579345472333 186.86918523917103 L-719.1710631923738 185.79988901288073 L-729.8514811001695 183.88878667830755 L-740.169542465297 181.15907642894538 L-750 177.64389324945802 L-759.2235252664981 173.38590670185107 L-767.7281571625741 168.43680297479105 L-775.4106609776896 162.8566574832909 L-782.1777815225246 156.713205634552 L-787.947375120649 150.08102061187768 L-792.6494067214802 143.04060815724725 L-796.226800030925 135.6774293406645 L-798.6361303402723 128.08086317853633 L-799.8481516433317 120.34312169348978 L-799.8481516433317 116.45062613941037 L800 116.45062613941037 L799.393067731795 124.22379586650449 L797.5796382627436 131.90260984292664 L794.5817241700636 139.39385766899997 L790.4357160697579 146.6066057440292 L785.1919408838328 153.45330107703083 L778.9140509396395 159.85083406144162 L771.6782513168453 165.7215473131586 L763.5723748209969 170.99417832598488 L754.6948158122427 175.60472450191997 L745.153335831089 179.49722005599943 L735.0637555192754 182.6244153651109 L724.54854871408 184.9483505144128 L713.7353557818408 186.44081607927862 z"/>
<path fill="#000000" stroke="#000000" d="M-697.2445657631839 174.34663971193487 L702.7554342368161 174.34663971193487 L713.7353557818408 173.70376024171517 L724.54854871408 172.21129467684935 L735.0637555192754 169.88735952754746 L745.153335831089 166.76016421843596 L754.6948158122427 162.86766866435653 L763.5723748209969 158.25712248842143 L771.6782513168453 152.98449147559515 L778.9140509396395 147.11377822387814 L785.1919408838328 140.71624523946738 L790.4357160697579 133.86954990646575 L794.5817241700636 126.65680183143652 L797.5796382627436 119.1655540053632 L799.393067731795 111.48674002894104 L800 103.71357030184693 L-799.8481516433317 103.71357030184693 L-799.8481516433317 107.60606585592633 L-798.6361303402723 115.34380734097289 L-796.226800030925 122.94037350310106 L-792.6494067214802 130.3035523196838 L-787.947375120649 137.34396477431423 L-782.1777815225246 143.97614979698855 L-775.4106609776896 150.11960164572744 L-767.7281571625741 155.6997471372276 L-759.2235252664981 160.64885086428762 L-750 164.90683741189457 L-740.169542465297 168.42202059138194 L-729.8514811001695 171.1517308407441 L-719.1710631923738 173.06283317531728 L-708.2579345472333 174.13212940160759 z"/>
<path fill="#000000" stroke="#000000" d="M702.7554342368161 -2.556913587557484 L-697.2445657631839 -2.556913587557484 L-697.2445657631839 10.180142250005966 L702.7554342368161 10.180142250005966 z"/>
<path fill="#000000" stroke="#000000" d="M713.7353557818407 -3.199793057777169 L702.7554342368159 -2.5569135875574833 L702.7554342368159 10.180142250005966 L713.7353557818407 9.53726277978628 z"/>
<path fill="#000000" stroke="#000000" d="M724.5485487140799 -4.692258622642995 L713.7353557818407 -3.1997930577771645 L713.7353557818407 9.537262779786293 L724.5485487140799 8.044797214920461 z"/>
<path fill="#000000" stroke="#000000" d="M735.0637555192753 -7.016193771944925 L724.5485487140799 -4.6922586226429885 L724.5485487140799 8.044797214920468 L735.0637555192753 5.720862065618532 z"/>
<path fill="#000000" stroke="#000000" d="M745.1533358310888 -10.143389081056348 L735.0637555192753 -7.016193771944899 L735.0637555192753 5.7208620656185545 L745.1533358310888 2.593666756507104 z"/>
<path fill="#000000" stroke="#000000" d="M754.6948158122426 -14.03588463513584 L745.1533358310888 -10.14338908105639 L745.1533358310888 2.5936667565070914 L754.6948158122426 -1.2988287975723594 z"/>
<path fill="#000000" stroke="#000000" d="M763.5723748209969 -18.64643081107093 L754.6948158122427 -14.03588463513583 L754.6948158122427 -1.2988287975723802 L763.5723748209969 -5.909374973507478 z"/>
<path fill="#000000" stroke="#000000" d="M771.6782513168453 -23.919061823897184 L763.5723748209969 -18.646430811070925 L763.5723748209969 -5.909374973507478 L771.6782513168453 -11.182005986333737 z"/>
<path fill="#000000" stroke="#000000" d="M778.9140509396395 -29.789775075614205 L771.6782513168453 -23.919061823897188 L771.6782513168453 -11.182005986333735 L778.9140509396395 -17.052719238050752 z"/>
<path fill="#000000" stroke="#000000" d="M785.1919408838328 -36.18730806002496 L778.9140509396395 -29.7897750756142 L778.9140509396395 -17.05271923805075 L785.1919408838328 -23.45025222246151 z"/>
<path fill="#000000" stroke="#000000" d="M790.4357160697579 -43.03400339302659 L785.1919408838328 -36.18730806002496 L785.1919408838328 -23.45025222246151 L790.4357160697579 -30.296947555463138 z"/>
<path fill="#000000" stroke="#000000" d="M794.5817241700636 -50.24675146805582 L790.4357160697579 -43.03400339302659 L790.4357160697579 -30.296947555463138 L794.5817241700636 -37.509695630492374 z"/>
<path fill="#000000" stroke="#000000" d="M797.5796382627436 -57.737999294129146 L794.5817241700635 -50.24675146805582 L794.5817241700636 -37.50969563049237 L797.5796382627436 -45.00094345656569 z"/>
<path fill="#000000" stroke="#000000" d="M799.393067731795 -65.4168132705513 L797.5796382627436 -57.737999294129146 L797.5796382627436 -45.00094345656569 L799.393067731795 -52.67975743298786 z"/>
<path fill="#000000" stroke="#000000" d="M800 -73.18998299764542 L799.3930677317949 -65.41681327055132 L799.393067731795 -52.67975743298786 L800 -60.45292716008196 z"/>
<path fill="#000000" stroke="#000000" d="M-799.8481516433317 -73.1899829976454 L800 -73.1899829976454 L800 -60.45292716008196 L-799.8481516433317 -60.45292716008196 z"/>
<path fill="#000000" stroke="#000000" d="M-799.8481516433317 -69.29748744356601 L-799.8481516433317 -73.18998299764542 L-799.8481516433317 -60.45292716008197 L-799.8481516433317 -56.56043160600256 z"/>
<path fill="#000000" stroke="#000000" d="M-798.6361303402723 -61.559745958519464 L-799.8481516433317 -69.297487443566 L-799.8481516433317 -56.56043160600255 L-798.6361303402722 -48.82269012095601 z"/>
<path fill="#000000" stroke="#000000" d="M-796.2268000309249 -53.9631797963913 L-798.6361303402723 -61.559745958519464 L-798.6361303402723 -48.82269012095601 L-796.226800030925 -41.226123958827856 z"/>
<path fill="#000000" stroke="#000000" d="M-792.6494067214802 -46.60000097980853 L-796.226800030925 -53.9631797963913 L-796.226800030925 -41.22612395882785 L-792.6494067214802 -33.86294514224508 z"/>
<path fill="#000000" stroke="#000000" d="M-787.947375120649 -39.559588525178114 L-792.6494067214802 -46.60000097980853 L-792.6494067214802 -33.86294514224508 L-787.947375120649 -26.822532687614668 z"/>
<path fill="#000000" stroke="#000000" d="M-782.1777815225246 -32.927403502503786 L-787.947375120649 -39.55958852517812 L-787.947375120649 -26.822532687614668 L-782.1777815225246 -20.19034766494034 z"/>
<path fill="#000000" stroke="#000000" d="M-775.4106609776896 -26.783951653764912 L-782.1777815225246 -32.927403502503786 L-782.1777815225246 -20.190347664940337 L-775.4106609776896 -14.046895816201463 z"/>
<path fill="#000000" stroke="#000000" d="M-767.7281571625741 -21.20380616226477 L-775.4106609776896 -26.783951653764916 L-775.4106609776896 -14.046895816201465 L-767.7281571625741 -8.466750324701318 z"/>
<path fill="#000000" stroke="#000000" d="M-759.2235252664981 -16.25470243520474 L-767.7281571625741 -21.203806162264765 L-767.7281571625741 -8.466750324701318 L-759.2235252664981 -3.5176465976412943 z"/>
<path fill="#000000" stroke="#000000" d="M-749.9999999999999 -11.996715887597821 L-759.223525266498 -16.254702435204756 L-759.223525266498 -3.5176465976412734 L-749.9999999999999 0.7403399499656631 z"/>
<path fill="#000000" stroke="#000000" d="M-740.1695424652969 -8.48153270811041 L-749.9999999999999 -11.996715887597786 L-749.9999999999999 0.7403399499656386 L-740.1695424652969 4.255523129453014 z"/>
<path fill="#000000" stroke="#000000" d="M-729.8514811001694 -5.751822458748263 L-740.1695424652969 -8.48153270811041 L-740.1695424652969 4.255523129453038 L-729.8514811001694 6.985233378815186 z"/>
<path fill="#000000" stroke="#000000" d="M-719.1710631923737 -3.8407201241750877 L-729.8514811001694 -5.751822458748247 L-729.8514811001694 6.985233378815208 L-719.1710631923737 8.896335713388368 z"/>
<path fill="#000000" stroke="#000000" d="M-708.2579345472332 -2.771423897884787 L-719.1710631923737 -3.840720124175078 L-719.1710631923737 8.896335713388373 L-708.2579345472332 9.965631939678664 z"/>
<path fill="#000000" stroke="#000000" d="M-697.2445657631837 -2.556913587557482 L-708.2579345472332 -2.7714238978847887 L-708.2579345472332 9.96563193967866 L-697.2445657631837 10.180142250005968 z"/>
<path fill="#000000" stroke="#000000" d="M702.7554342368161 10.180142250005918 L-697.2445657631839 10.180142250005918 L-708.2579345472333 9.965631939678607 L-719.1710631923738 8.896335713388346 L-729.8514811001695 6.985233378815134 L-740.169542465297 4.255523129453025 L-750 0.7403399499656217 L-759.2235252664981 -3.517646597641318 L-767.7281571625741 -8.466750324701339 L-775.4106609776896 -14.046895816201522 L-782.1777815225246 -20.19034766494039 L-787.947375120649 -26.82253268761467 L-792.6494067214802 -33.862945142245124 L-796.226800030925 -41.226123958827884 L-798.6361303402723 -48.82269012095606 L-799.8481516433317 -56.56043160600261 L-799.8481516433317 -60.45292716008201 L800 -60.45292716008201 L799.393067731795 -52.67975743298787 L797.5796382627436 -45.000943456565736 L794.5817241700636 -37.50969563049241 L790.4357160697579 -30.296947555463152 L785.1919408838328 -23.450252222461557 L778.9140509396395 -17.052719238050784 L771.6782513168453 -11.182005986333781 L763.5723748209969 -5.909374973507499 L754.6948158122427 -1.2988287975724364 L745.153335831089 2.593666756507035 L735.0637555192754 5.720862065618521 L724.54854871408 8.044797214920413 L713.7353557818408 9.537262779786234 z"/>
<path fill="#000000" stroke="#000000" d="M-697.2445657631839 -2.556913587557499 L702.7554342368161 -2.556913587557499 L713.7353557818408 -3.199793057777183 L724.54854871408 -4.692258622643003 L735.0637555192754 -7.016193771944963 L745.153335831089 -10.143389081056382 L754.6948158122427 -14.035884635135853 L763.5723748209969 -18.64643081107098 L771.6782513168453 -23.9190618238972 L778.9140509396395 -29.78977507561427 L785.1919408838328 -36.187308060024975 L790.4357160697579 -43.03400339302664 L794.5817241700636 -50.24675146805583 L797.5796382627436 -57.73799929412915 L799.393067731795 -65.41681327055136 L800 -73.18998299764543 L-799.8481516433317 -73.18998299764543 L-799.8481516433317 -69.29748744356603 L-798.6361303402723 -61.55974595851948 L-796.226800030925 -53.963179796391366 L-792.6494067214802 -46.60000097980854 L-787.947375120649 -39.55958852517816 L-782.1777815225246 -32.92740350250381 L-775.4106609776896 -26.78395165376494 L-767.7281571625741 -21.203806162264822 L-759.2235252664981 -16.254702435204802 L-750 -11.996715887597794 L-740.169542465297 -8.481532708110459 L-729.8514811001695 -5.751822458748283 L-719.1710631923738 -3.8407201241751383 L-708.2579345472333 -2.77142389788481 z"/>
<path fill="#000000" stroke="#000000" d="M702.7554342368161 -179.46046688704985 L-697.2445657631839 -179.46046688704985 L-697.2445657631839 -166.72341104948637 L702.7554342368161 -166.72341104948637 z"/>
<path fill="#000000" stroke="#000000" d="M713.7353557818407 -180.10334635726952 L702.7554342368159 -179.46046688704985 L702.7554342368159 -166.7234110494864 L713.7353557818407 -167.36629051970607 z"/>
<path fill="#000000" stroke="#000000" d="M724.5485487140799 -181.59581192213534 L713.7353557818407 -180.10334635726952 L713.7353557818407 -167.36629051970607 L724.5485487140799 -168.8587560845719 z"/>
<path fill="#000000" stroke="#000000" d="M735.0637555192753 -183.91974707143729 L724.5485487140799 -181.59581192213534 L724.5485487140799 -168.8587560845719 L735.0637555192753 -171.1826912338738 z"/>
<path fill="#000000" stroke="#000000" d="M745.1533358310888 -187.04694238054873 L735.0637555192753 -183.91974707143726 L735.0637555192753 -171.1826912338738 L745.1533358310888 -174.30988654298525 z"/>
<path fill="#000000" stroke="#000000" d="M754.6948158122426 -190.9394379346282 L745.1533358310888 -187.04694238054873 L745.1533358310888 -174.30988654298528 L754.6948158122426 -178.2023820970647 z"/>
<path fill="#000000" stroke="#000000" d="M763.5723748209969 -195.5499841105633 L754.6948158122427 -190.9394379346282 L754.6948158122427 -178.20238209706474 L763.5723748209969 -182.81292827299984 z"/>
<path fill="#000000" stroke="#000000" d="M771.6782513168453 -200.82261512338954 L763.5723748209969 -195.5499841105633 L763.5723748209969 -182.81292827299984 L771.6782513168453 -188.0855592858261 z"/>
<path fill="#000000" stroke="#000000" d="M778.9140509396395 -206.69332837510657 L771.6782513168453 -200.82261512338954 L771.6782513168453 -188.0855592858261 L778.9140509396395 -193.9562725375431 z"/>
<path fill="#000000" stroke="#000000" d="M785.1919408838328 -213.09086135951733 L778.9140509396395 -206.69332837510657 L778.9140509396395 -193.95627253754313 L785.1919408838328 -200.3538055219539 z"/>
<path fill="#000000" stroke="#000000" d="M790.4357160697579 -219.93755669251894 L785.1919408838328 -213.09086135951733 L785.1919408838328 -200.35380552195386 L790.4357160697579 -207.2005008549555 z"/>
<path fill="#000000" stroke="#000000" d="M794.5817241700636 -227.15030476754816 L790.4357160697579 -219.93755669251894 L790.4357160697579 -207.2005008549555 L794.5817241700636 -214.41324892998472 z"/>
<path fill="#000000" stroke="#000000" d="M797.5796382627436 -234.6415525936215 L794.5817241700635 -227.1503047675482 L794.5817241700636 -214.41324892998472 L797.5796382627436 -221.90449675605805 z"/>
<path fill="#000000" stroke="#000000" d="M799.393067731795 -242.3203665700437 L797.5796382627436 -234.6415525936215 L797.5796382627436 -221.90449675605808 L799.393067731795 -229.58331073248021 z"/>
<path fill="#000000" stroke="#000000" d="M800 -250.09353629713777 L799.393067731795 -242.3203665700437 L799.393067731795 -229.58331073248021 L800 -237.35648045957433 z"/>
<path fill="#000000" stroke="#000000" d="M-799.8481516433317 -250.09353629713777 L800 -250.09353629713777 L800 -237.35648045957433 L-799.8481516433317 -237.35648045957433 z"/>
<path fill="#000000" stroke="#000000" d="M-799.8481516433317 -246.2010407430584 L-799.8481516433317 -250.0935362971378 L-799.8481516433317 -237.35648045957433 L-799.8481516433317 -233.46398490549493 z"/>
<path fill="#000000" stroke="#000000" d="M-798.6361303402723 -238.46329925801183 L-799.8481516433317 -246.20104074305834 L-799.8481516433317 -233.46398490549493 L-798.6361303402723 -225.72624342044836 z"/>
<path fill="#000000" stroke="#000000" d="M-796.2268000309249 -230.86673309588366 L-798.6361303402723 -238.4632992580118 L-798.6361303402723 -225.72624342044836 L-796.226800030925 -218.1296772583202 z"/>
<path fill="#000000" stroke="#000000" d="M-792.6494067214802 -223.50355427930091 L-796.226800030925 -230.86673309588366 L-796.226800030925 -218.1296772583202 L-792.6494067214801 -210.76649844173744 z"/>
<path fill="#000000" stroke="#000000" d="M-787.947375120649 -216.46314182467046 L-792.6494067214802 -223.5035542793009 L-792.6494067214802 -210.76649844173744 L-787.9473751206489 -203.726085987107 z"/>
<path fill="#000000" stroke="#000000" d="M-782.1777815225246 -209.83095680199614 L-787.947375120649 -216.4631418246705 L-787.9473751206489 -203.72608598710704 L-782.1777815225245 -197.0939009644327 z"/>
<path fill="#000000" stroke="#000000" d="M-775.4106609776895 -203.68750495325727 L-782.1777815225245 -209.83095680199617 L-782.1777815225246 -197.0939009644327 L-775.4106609776896 -190.9504491156938 z"/>
<path fill="#000000" stroke="#000000" d="M-767.728157162574 -198.1073594617571 L-775.4106609776895 -203.68750495325727 L-775.4106609776896 -190.95044911569383 L-767.7281571625741 -185.3703036241937 z"/>
<path fill="#000000" stroke="#000000" d="M-759.2235252664981 -193.15825573469712 L-767.7281571625741 -198.10735946175714 L-767.7281571625741 -185.37030362419367 L-759.2235252664981 -180.42119989713365 z"/>
<path fill="#000000" stroke="#000000" d="M-749.9999999999999 -188.90026918709015 L-759.223525266498 -193.1582557346971 L-759.223525266498 -180.42119989713365 L-749.9999999999999 -176.16321334952673 z"/>
<path fill="#000000" stroke="#000000" d="M-740.1695424652969 -185.38508600760278 L-749.9999999999999 -188.90026918709017 L-749.9999999999999 -176.1632133495267 L-740.1695424652969 -172.64803017003933 z"/>
<path fill="#000000" stroke="#000000" d="M-729.8514811001694 -182.65537575824064 L-740.1695424652969 -185.38508600760278 L-740.1695424652969 -172.64803017003933 L-729.8514811001694 -169.91831992067716 z"/>
<path fill="#000000" stroke="#000000" d="M-719.1710631923737 -180.74427342366744 L-729.8514811001694 -182.6553757582406 L-729.8514811001694 -169.91831992067716 L-719.1710631923737 -168.007217586104 z"/>
<path fill="#000000" stroke="#000000" d="M-708.2579345472332 -179.67497719737713 L-719.1710631923737 -180.74427342366744 L-719.1710631923737 -168.007217586104 L-708.2579345472332 -166.93792135981369 z"/>
<path fill="#000000" stroke="#000000" d="M-697.2445657631837 -179.46046688704985 L-708.2579345472332 -179.67497719737716 L-708.2579345472332 -166.9379213598137 L-697.2445657631837 -166.7234110494864 z"/>
<path fill="#000000" stroke="#000000" d="M702.7554342368161 -166.72341104948643 L-697.2445657631839 -166.72341104948643 L-708.2579345472333 -166.93792135981374 L-719.1710631923738 -168.00721758610402 L-729.8514811001695 -169.91831992067722 L-740.169542465297 -172.6480301700394 L-750 -176.16321334952673 L-759.2235252664981 -180.42119989713368 L-767.7281571625741 -185.3703036241937 L-775.4106609776896 -190.95044911569389 L-782.1777815225246 -197.09390096443275 L-787.947375120649 -203.7260859871071 L-792.6494067214802 -210.7664984417375 L-796.226800030925 -218.12967725832024 L-798.6361303402723 -225.7262434204484 L-799.8481516433317 -233.46398490549495 L-799.8481516433317 -237.35648045957439 L800 -237.35648045957439 L799.393067731795 -229.5833107324803 L797.5796382627436 -221.9044967560581 L794.5817241700636 -214.41324892998477 L790.4357160697579 -207.20050085495558 L785.1919408838328 -200.35380552195392 L778.9140509396395 -193.95627253754313 L771.6782513168453 -188.08555928582615 L763.5723748209969 -182.81292827299987 L754.6948158122427 -178.2023820970648 L745.153335831089 -174.3098865429853 L735.0637555192754 -171.18269123387384 L724.54854871408 -168.85875608457195 L713.7353557818408 -167.36629051970613 z"/>
<path fill="#000000" stroke="#000000" d="M-697.2445657631839 -179.46046688704993 L702.7554342368161 -179.46046688704993 L713.7353557818408 -180.10334635726954 L724.54854871408 -181.59581192213543 L735.0637555192754 -183.9197470714373 L745.153335831089 -187.0469423805488 L754.6948158122427 -190.93943793462822 L763.5723748209969 -195.54998411056334 L771.6782513168453 -200.82261512338962 L778.9140509396395 -206.69332837510663 L785.1919408838328 -213.0908613595174 L790.4357160697579 -219.937556692519 L794.5817241700636 -227.15030476754825 L797.5796382627436 -234.64155259362158 L799.393067731795 -242.32036657004372 L800 -250.09353629713786 L-799.8481516433317 -250.09353629713786 L-799.8481516433317 -246.20104074305846 L-798.6361303402723 -238.46329925801192 L-796.226800030925 -230.86673309588372 L-792.6494067214802 -223.50355427930097 L-787.947375120649 -216.46314182467052 L-782.1777815225246 -209.83095680199622 L-775.4106609776896 -203.6875049532573 L-767.7281571625741 -198.10735946175717 L-759.2235252664981 -193.15825573469715 L-750 -188.90026918709023 L-740.169542465297 -185.3850860076028 L-729.8514811001695 -182.65537575824064 L-719.1710631923738 -180.7442734236675 L-708.2579345472333 -179.67497719737716 z"/>
<path fill="#000000" stroke="#000000" d="M702.7554342368161 -356.36402018654223 L-697.2445657631839 -356.36402018654223 L-697.2445657631839 -343.62696434897873 L702.7554342368161 -343.62696434897873 z"/>
<path fill="#000000" stroke="#000000" d="M713.7353557818407 -357.0068996567619 L702.7554342368159 -356.36402018654223 L702.7554342368159 -343.62696434897873 L713.7353557818407 -344.2698438191984 z"/>
<path fill="#000000" stroke="#000000" d="M724.5485487140799 -358.4993652216277 L713.7353557818407 -357.00689965676185 L713.7353557818407 -344.26984381919846 L724.5485487140799 -345.7623093840643 z"/>
<path fill="#000000" stroke="#000000" d="M735.0637555192753 -360.82330037092964 L724.5485487140799 -358.49936522162767 L724.5485487140799 -345.7623093840642 L735.0637555192753 -348.0862445333662 z"/>
<path fill="#000000" stroke="#000000" d="M745.1533358310888 -363.95049568004106 L735.0637555192753 -360.82330037092964 L735.0637555192753 -348.0862445333662 L745.1533358310888 -351.2134398424776 z"/>
<path fill="#000000" stroke="#000000" d="M754.6948158122426 -367.8429912341205 L745.1533358310888 -363.9504956800411 L745.1533358310888 -351.2134398424776 L754.6948158122426 -355.1059353965571 z"/>
<path fill="#000000" stroke="#000000" d="M763.5723748209969 -372.4535374100557 L754.6948158122427 -367.8429912341206 L754.6948158122426 -355.1059353965571 L763.5723748209969 -359.7164815724922 z"/>
<path fill="#000000" stroke="#000000" d="M771.6782513168453 -377.72616842288187 L763.5723748209969 -372.4535374100556 L763.5723748209969 -359.71648157249217 L771.6782513168453 -364.9891125853184 z"/>
<path fill="#000000" stroke="#000000" d="M778.9140509396395 -383.59688167459893 L771.6782513168453 -377.7261684228819 L771.6782513168451 -364.9891125853185 L778.9140509396395 -370.8598258370355 z"/>
<path fill="#000000" stroke="#000000" d="M785.1919408838328 -389.9944146590097 L778.9140509396395 -383.59688167459893 L778.9140509396395 -370.8598258370355 L785.1919408838328 -377.25735882144625 z"/>
<path fill="#000000" stroke="#000000" d="M790.4357160697577 -396.8411099920113 L785.1919408838327 -389.9944146590097 L785.1919408838328 -377.25735882144625 L790.4357160697577 -384.10405415444785 z"/>
<path fill="#000000" stroke="#000000" d="M794.5817241700636 -404.0538580670405 L790.4357160697579 -396.8411099920113 L790.4357160697577 -384.10405415444785 L794.5817241700636 -391.3168022294771 z"/>
<path fill="#000000" stroke="#000000" d="M797.5796382627436 -411.5451058931139 L794.5817241700636 -404.05385806704055 L794.5817241700636 -391.3168022294771 L797.5796382627435 -398.8080500555504 z"/>
<path fill="#000000" stroke="#000000" d="M799.393067731795 -419.223919869536 L797.5796382627435 -411.5451058931139 L797.5796382627436 -398.8080500555504 L799.3930677317949 -406.4868640319726 z"/>
<path fill="#000000" stroke="#000000" d="M800 -426.99708959663013 L799.393067731795 -419.2239198695361 L799.3930677317949 -406.4868640319726 L800 -414.2600337590667 z"/>
<path fill="#000000" stroke="#000000" d="M-799.8481516433317 -426.99708959663013 L800 -426.99708959663013 L800 -414.2600337590667 L-799.8481516433317 -414.2600337590667 z"/>
<path fill="#000000" stroke="#000000" d="M-799.8481516433317 -423.1045940425508 L-799.8481516433317 -426.9970895966302 L-799.8481516433317 -414.2600337590667 L-799.8481516433317 -410.3675382049873 z"/>
<path fill="#000000" stroke="#000000" d="M-798.6361303402723 -415.3668525575042 L-799.8481516433317 -423.10459404255073 L-799.8481516433317 -410.3675382049873 L-798.6361303402722 -402.6297967199407 z"/>
<path fill="#000000" stroke="#000000" d="M-796.2268000309249 -407.77028639537605 L-798.6361303402723 -415.3668525575042 L-798.6361303402723 -402.6297967199407 L-796.226800030925 -395.0332305578126 z"/>
<path fill="#000000" stroke="#000000" d="M-792.6494067214802 -400.4071075787933 L-796.226800030925 -407.770286395376 L-796.226800030925 -395.03323055781254 L-792.6494067214802 -387.6700517412298 z"/>
<path fill="#000000" stroke="#000000" d="M-787.9473751206489 -393.3666951241628 L-792.6494067214802 -400.4071075787932 L-792.6494067214802 -387.6700517412298 L-787.947375120649 -380.6296392865994 z"/>
<path fill="#000000" stroke="#000000" d="M-782.1777815225246 -386.7345101014885 L-787.947375120649 -393.36669512416285 L-787.947375120649 -380.6296392865994 L-782.1777815225246 -373.9974542639251 z"/>
<path fill="#000000" stroke="#000000" d="M-775.4106609776896 -380.59105825274963 L-782.1777815225246 -386.7345101014885 L-782.1777815225246 -373.9974542639251 L-775.4106609776896 -367.8540024151862 z"/>
<path fill="#000000" stroke="#000000" d="M-767.7281571625741 -375.0109127612495 L-775.4106609776896 -380.59105825274963 L-775.4106609776896 -367.8540024151862 L-767.7281571625741 -362.273856923686 z"/>
<path fill="#000000" stroke="#000000" d="M-759.2235252664981 -370.0618090341895 L-767.7281571625741 -375.01091276124953 L-767.7281571625741 -362.2738569236861 L-759.2235252664981 -357.32475319662603 z"/>
<path fill="#000000" stroke="#000000" d="M-749.9999999999999 -365.80382248658253 L-759.223525266498 -370.0618090341895 L-759.223525266498 -357.32475319662603 L-749.9999999999999 -353.0667666490191 z"/>
<path fill="#000000" stroke="#000000" d="M-740.1695424652969 -362.28863930709514 L-749.9999999999999 -365.80382248658253 L-749.9999999999999 -353.0667666490191 L-740.1695424652969 -349.5515834695317 z"/>
<path fill="#000000" stroke="#000000" d="M-729.8514811001694 -359.558929057733 L-740.1695424652969 -362.28863930709514 L-740.1695424652969 -349.5515834695317 L-729.8514811001694 -346.82187322016955 z"/>
<path fill="#000000" stroke="#000000" d="M-719.1710631923737 -357.6478267231598 L-729.8514811001694 -359.558929057733 L-729.8514811001694 -346.8218732201695 L-719.1710631923737 -344.9107708855964 z"/>
<path fill="#000000" stroke="#000000" d="M-708.2579345472332 -356.57853049686946 L-719.1710631923737 -357.64782672315977 L-719.1710631923737 -344.9107708855963 L-708.2579345472332 -343.8414746593061 z"/>
<path fill="#000000" stroke="#000000" d="M-697.2445657631837 -356.3640201865422 L-708.2579345472332 -356.5785304968695 L-708.2579345472332 -343.841474659306 L-697.2445657631837 -343.62696434897873 z"/>
<path fill="#000000" stroke="#000000" d="M702.7554342368161 -343.62696434897885 L-697.2445657631839 -343.62696434897885 L-708.2579345472333 -343.84147465930613 L-719.1710631923738 -344.9107708855965 L-729.8514811001695 -346.82187322016966 L-740.169542465297 -349.55158346953175 L-750 -353.06676664901914 L-759.2235252664981 -357.3247531966261 L-767.7281571625741 -362.27385692368614 L-775.4106609776896 -367.8540024151863 L-782.1777815225246 -373.9974542639252 L-787.947375120649 -380.62963928659946 L-792.6494067214802 -387.6700517412298 L-796.226800030925 -395.0332305578127 L-798.6361303402723 -402.62979671994077 L-799.8481516433317 -410.3675382049874 L-799.8481516433317 -414.2600337590668 L800 -414.2600337590668 L799.393067731795 -406.48686403197274 L797.5796382627436 -398.80805005555044 L794.5817241700636 -391.3168022294771 L790.4357160697579 -384.104054154448 L785.1919408838328 -377.25735882144636 L778.9140509396395 -370.85982583703554 L771.6782513168453 -364.98911258531854 L763.5723748209969 -359.7164815724923 L754.6948158122427 -355.1059353965572 L745.153335831089 -351.21343984247767 L735.0637555192754 -348.08624453336625 L724.54854871408 -345.76230938406434 L713.7353557818408 -344.26984381919846 z"/>
<path fill="#000000" stroke="#000000" d="M-697.2445657631839 -356.36402018654235 L702.7554342368161 -356.36402018654235 L713.7353557818408 -357.00689965676196 L724.54854871408 -358.49936522162784 L735.0637555192754 -360.82330037092976 L745.153335831089 -363.9504956800412 L754.6948158122427 -367.8429912341207 L763.5723748209969 -372.4535374100558 L771.6782513168453 -377.72616842288204 L778.9140509396395 -383.59688167459905 L785.1919408838328 -389.9944146590098 L790.4357160697579 -396.84110999201135 L794.5817241700636 -404.0538580670406 L797.5796382627436 -411.54510589311394 L799.393067731795 -419.2239198695361 L800 -426.9970895966303 L-799.8481516433317 -426.9970895966303 L-799.8481516433317 -423.1045940425509 L-798.6361303402723 -415.3668525575043 L-796.226800030925 -407.7702863953761 L-792.6494067214802 -400.40710757879333 L-787.947375120649 -393.36669512416296 L-782.1777815225246 -386.73451010148864 L-775.4106609776896 -380.5910582527498 L-767.7281571625741 -375.0109127612496 L-759.2235252664981 -370.0618090341896 L-750 -365.80382248658265 L-740.169542465297 -362.28863930709525 L-729.8514811001695 -359.5589290577331 L-719.1710631923738 -357.6478267231598 L-708.2579345472333 -356.5785304968696 z"/>
</svg>