<?xml version="1.0" encoding="UTF-8"?>
<!-- Generated by jsxcad -->
<!DOCTYPE svg PUBLIC "-//W3C//DTD SVG 1.1 Tiny//EN" "http://www.w3.org/Graphics/SVG/1.1/DTD/svg11-tiny.dtd">
<svg baseProfile="tiny" height="1443.4685256179591mm" width="1599.6929905346008mm" viewBox="-799.8464952673004 -721.534601218455 1599.6929905346008 1443.4685256179591" version="1.1" stroke="black" stroke-width=".1" fill="none" xmlns="http://www.w3.org/2000/svg">
<path fill="#000000" stroke="#000000" d="M624.9999999999999 -721.8796014202507 L624.9999999999999 -714.8136115725348 L628.6649234795879 -714.8679345517877 L628.6649234795879 -721.9339243995036 z"/>
<path fill="#000000" stroke="#000000" d="M625 714.4142883914858 L625 721.4802782392015 L625 -714.8136115725348 L625 -721.8796014202505 z"/>
<path fill="#000000" stroke="#000000" d="M628.6649234795874 714.4686113707387 L628.6649234795874 721.5346012184544 L624.9999999999999 721.4802782392015 L624.9999999999999 714.4142883914858 z"/>
<path fill="#000000" stroke="#000000" d="M643.2924810718393 713.8174025592674 L643.2924810718393 720.8833924069831 L628.6649234795874 721.5346012184544 L628.6649234795874 714.4686113707387 z"/>
<path fill="#000000" stroke="#000000" d="M657.7917300525016 712.3023560821981 L657.7917300525016 719.3683459299137 L643.2924810718393 720.8833924069831 L643.2924810718393 713.8174025592675 z"/>
<path fill="#000000" stroke="#000000" d="M672.0609686076714 709.9340989020079 L672.0609686076714 717.0000887497235 L657.7917300525017 719.3683459299139 L657.7917300525017 712.3023560821982 z"/>
<path fill="#000000" stroke="#000000" d="M686.0001082813176 706.7292426412251 L686.0001082813176 713.795232488941 L672.0609686076715 717.0000887497237 L672.0609686076715 709.9340989020078 z"/>
<path fill="#000000" stroke="#000000" d="M699.5113760238876 702.7102670638335 L699.5113760238876 709.7762569115494 L686.0001082813176 713.795232488941 L686.0001082813176 706.7292426412251 z"/>
<path fill="#000000" stroke="#000000" d="M712.4999999999999 697.9053623958785 L712.4999999999999 704.9713522435942 L699.5113760238877 709.7762569115494 L699.5113760238877 702.7102670638336 z"/>
<path fill="#000000" stroke="#000000" d="M724.8748743447755 692.3482315912861 L724.8748743447755 699.414221439002 L712.4999999999999 704.9713522435942 L712.4999999999999 697.9053623958785 z"/>
<path fill="#000000" stroke="#000000" d="M736.5491982060207 686.0778539298581 L736.5491982060207 693.1438437775737 L724.8748743447755 699.4142214390018 L724.8748743447755 692.3482315912861 z"/>
<path fill="#000000" stroke="#000000" d="M747.4410845898391 679.1382116056288 L747.4410845898391 686.2042014533445 L736.5491982060208 693.1438437775737 L736.5491982060207 686.0778539298581 z"/>
<path fill="#000000" stroke="#000000" d="M757.4741347390574 671.5779812233769 L757.4741347390574 678.6439710710928 L747.4410845898391 686.2042014533445 L747.441084589839 679.1382116056288 z"/>
<path fill="#000000" stroke="#000000" d="M766.5779740156158 663.4501923672159 L766.5779740156158 670.5161822149315 L757.4741347390574 678.6439710710928 L757.4741347390574 671.577981223377 z"/>
<path fill="#000000" stroke="#000000" d="M774.6887455280887 654.8118556361632 L774.6887455280887 661.8778454838789 L766.5779740156158 670.5161822149315 L766.5779740156158 663.4501923672158 z"/>
<path fill="#000000" stroke="#000000" d="M781.7495580418972 645.723562755751 L781.7495580418972 652.7895526034667 L774.6887455280887 661.877845483879 L774.6887455280887 654.8118556361632 z"/>
<path fill="#000000" stroke="#000000" d="M787.710885030444 636.2490615706059 L787.710885030444 643.3150514183216 L781.7495580418972 652.7895526034667 L781.7495580418972 645.723562755751 z"/>
<path fill="#000000" stroke="#000000" d="M792.5309120681118 626.4548088991219 L792.5309120681118 633.5207987468377 L787.7108850304439 643.3150514183217 L787.7108850304439 636.2490615706059 z"/>
<path fill="#000000" stroke="#000000" d="M796.175830128416 616.4095043866288 L796.175830128416 623.4754942343445 L792.5309120681118 633.5207987468376 L792.5309120681118 626.454808899122 z"/>
<path fill="#000000" stroke="#000000" d="M798.6200727300336 606.1836086267402 L798.6200727300336 613.249598474456 L796.175830128416 623.4754942343445 L796.175830128416 616.4095043866289 z"/>
<path fill="#000000" stroke="#000000" d="M799.8464952673002 595.848848930916 L799.8464952673002 602.9148387786317 L798.6200727300336 613.249598474456 L798.6200727300336 606.1836086267404 z"/>
<path fill="#000000" stroke="#000000" d="M799.8464952673002 -603.314161959681 L799.8464952673002 -596.2481721119652 L799.8464952673002 602.9148387786319 L799.8464952673002 595.8488489309161 z"/>
<path fill="#000000" stroke="#000000" d="M798.6200727300336 -613.6489216555052 L798.6200727300336 -606.5829318077895 L799.8464952673002 -596.2481721119652 L799.8464952673002 -603.3141619596809 z"/>
<path fill="#000000" stroke="#000000" d="M796.175830128416 -623.8748174153936 L796.175830128416 -616.8088275676779 L798.6200727300336 -606.5829318077895 L798.6200727300336 -613.6489216555052 z"/>
<path fill="#000000" stroke="#000000" d="M792.5309120681118 -633.9201219278867 L792.5309120681118 -626.854132080171 L796.175830128416 -616.808827567678 L796.175830128416 -623.8748174153936 z"/>
<path fill="#000000" stroke="#000000" d="M787.710885030444 -643.7143745993707 L787.7108850304439 -636.6483847516549 L792.5309120681118 -626.854132080171 L792.5309120681118 -633.9201219278867 z"/>
<path fill="#000000" stroke="#000000" d="M781.7495580418973 -653.1888757845157 L781.7495580418973 -646.1228859367999 L787.7108850304439 -636.6483847516548 L787.710885030444 -643.7143745993706 z"/>
<path fill="#000000" stroke="#000000" d="M774.6887455280887 -662.277168664928 L774.6887455280887 -655.2111788172123 L781.7495580418973 -646.1228859368 L781.7495580418973 -653.1888757845157 z"/>
<path fill="#000000" stroke="#000000" d="M766.5779740156158 -670.9155053959806 L766.577974015616 -663.8495155482648 L774.6887455280887 -655.2111788172123 L774.6887455280887 -662.2771686649279 z"/>
<path fill="#000000" stroke="#000000" d="M757.4741347390575 -679.0432942521418 L757.4741347390575 -671.977304404426 L766.5779740156158 -663.8495155482649 L766.577974015616 -670.9155053959805 z"/>
<path fill="#000000" stroke="#000000" d="M747.4410845898391 -686.6035246343935 L747.4410845898391 -679.5375347866777 L757.4741347390576 -671.9773044044259 L757.4741347390575 -679.0432942521417 z"/>
<path fill="#000000" stroke="#000000" d="M736.549198206021 -693.5431669586226 L736.549198206021 -686.477177110907 L747.4410845898392 -679.5375347866777 L747.4410845898392 -686.6035246343935 z"/>
<path fill="#000000" stroke="#000000" d="M724.8748743447759 -699.8135446200507 L724.8748743447758 -692.747554772335 L736.549198206021 -686.4771771109068 L736.549198206021 -693.5431669586228 z"/>
<path fill="#000000" stroke="#000000" d="M712.5000000000001 -705.3706754246431 L712.5000000000001 -698.3046855769273 L724.8748743447757 -692.7475547723351 L724.8748743447757 -699.8135446200508 z"/>
<path fill="#000000" stroke="#000000" d="M699.5113760238879 -710.1755800925984 L699.5113760238879 -703.1095902448826 L712.5000000000001 -698.3046855769275 L712.5000000000001 -705.3706754246432 z"/>
<path fill="#000000" stroke="#000000" d="M686.0001082813178 -714.1945556699899 L686.0001082813178 -707.1285658222743 L699.5113760238879 -703.1095902448826 L699.5113760238879 -710.1755800925982 z"/>
<path fill="#000000" stroke="#000000" d="M672.0609686076718 -717.3994119307725 L672.0609686076718 -710.3334220830568 L686.0001082813179 -707.1285658222741 L686.0001082813179 -714.1945556699899 z"/>
<path fill="#000000" stroke="#000000" d="M657.7917300525021 -719.767669110963 L657.7917300525021 -712.7016792632471 L672.0609686076717 -710.3334220830568 L672.0609686076717 -717.3994119307727 z"/>
<path fill="#000000" stroke="#000000" d="M643.2924810718397 -721.2827155880323 L643.2924810718397 -714.2167257403165 L657.7917300525021 -712.7016792632471 L657.7917300525021 -719.7676691109629 z"/>
<path fill="#000000" stroke="#000000" d="M628.6649234795879 -721.9339243995036 L628.6649234795879 -714.8679345517877 L643.2924810718397 -714.2167257403165 L643.2924810718397 -721.2827155880323 z"/>
<path fill="#000000" stroke="#000000" d="M625 -721.8796014202505 L628.6649234795879 -721.9339243995034 L643.2924810718397 -721.2827155880321 L657.7917300525021 -719.7676691109629 L672.0609686076718 -717.3994119307724 L686.0001082813179 -714.1945556699898 L699.511376023888 -710.1755800925981 L712.5000000000002 -705.3706754246431 L724.8748743447757 -699.8135446200507 L736.5491982060208 -693.5431669586227 L747.4410845898391 -686.6035246343935 L757.4741347390575 -679.0432942521417 L766.5779740156158 -670.9155053959805 L774.6887455280887 -662.2771686649279 L781.7495580418972 -653.1888757845157 L787.7108850304439 -643.7143745993707 L792.5309120681118 -633.9201219278867 L796.175830128416 -623.8748174153936 L798.6200727300336 -613.6489216555052 L799.8464952673002 -603.3141619596809 L799.8464952673002 595.848848930916 L798.6200727300336 606.1836086267402 L796.175830128416 616.4095043866289 L792.5309120681118 626.454808899122 L787.7108850304439 636.2490615706059 L781.7495580418972 645.723562755751 L774.6887455280887 654.8118556361633 L766.5779740156158 663.4501923672159 L757.4741347390574 671.577981223377 L747.441084589839 679.1382116056288 L736.5491982060207 686.077853929858 L724.8748743447755 692.348231591286 L712.5 697.9053623958783 L699.5113760238877 702.7102670638334 L686.0001082813177 706.729242641225 L672.0609686076715 709.9340989020077 L657.7917300525019 712.302356082198 L643.2924810718393 713.8174025592674 L628.6649234795875 714.4686113707386 L625 714.4142883914858 z"/>
<path fill="#000000" stroke="#000000" d="M625 -714.8136115725348 L625 721.4802782392015 L628.6649234795875 721.5346012184543 L643.2924810718393 720.8833924069831 L657.7917300525019 719.3683459299137 L672.0609686076715 717.0000887497234 L686.0001082813177 713.7952324889408 L699.5113760238877 709.7762569115491 L712.5 704.9713522435941 L724.8748743447755 699.4142214390017 L736.5491982060207 693.1438437775737 L747.441084589839 686.2042014533446 L757.4741347390574 678.6439710710928 L766.5779740156158 670.5161822149316 L774.6887455280887 661.877845483879 L781.7495580418972 652.7895526034667 L787.7108850304439 643.3150514183217 L792.5309120681118 633.5207987468377 L796.175830128416 623.4754942343446 L798.6200727300336 613.249598474456 L799.8464952673002 602.9148387786317 L799.8464952673002 -596.2481721119651 L798.6200727300336 -606.5829318077895 L796.175830128416 -616.8088275676779 L792.5309120681118 -626.854132080171 L787.7108850304439 -636.6483847516549 L781.7495580418972 -646.1228859368 L774.6887455280887 -655.2111788172122 L766.5779740156158 -663.8495155482648 L757.4741347390575 -671.9773044044259 L747.4410845898391 -679.5375347866777 L736.5491982060208 -686.477177110907 L724.8748743447757 -692.7475547723351 L712.5000000000002 -698.3046855769273 L699.511376023888 -703.1095902448824 L686.0001082813179 -707.128565822274 L672.0609686076718 -710.3334220830567 L657.7917300525021 -712.7016792632471 L643.2924810718397 -714.2167257403164 L628.6649234795879 -714.8679345517877 z"/>
<path fill="#000000" stroke="#000000" d="M-624.9999999999999 714.4142883914858 L-624.9999999999999 721.4802782392015 L-628.6649234795879 721.5346012184544 L-628.6649234795879 714.4686113707387 z"/>
<path fill="#000000" stroke="#000000" d="M-625 -721.8796014202505 L-625 -714.8136115725348 L-625 721.4802782392015 L-625 714.4142883914858 z"/>
<path fill="#000000" stroke="#000000" d="M-628.6649234795874 -721.9339243995036 L-628.6649234795874 -714.8679345517877 L-624.9999999999999 -714.8136115725349 L-624.9999999999999 -721.8796014202507 z"/>
<path fill="#000000" stroke="#000000" d="M-643.2924810718393 -721.2827155880323 L-643.2924810718393 -714.2167257403165 L-628.6649234795874 -714.8679345517877 L-628.6649234795874 -721.9339243995036 z"/>
<path fill="#000000" stroke="#000000" d="M-657.7917300525016 -719.7676691109629 L-657.7917300525016 -712.7016792632471 L-643.2924810718393 -714.2167257403165 L-643.2924810718393 -721.2827155880323 z"/>
<path fill="#000000" stroke="#000000" d="M-672.0609686076714 -717.3994119307728 L-672.0609686076714 -710.3334220830569 L-657.7917300525017 -712.7016792632471 L-657.7917300525017 -719.767669110963 z"/>
<path fill="#000000" stroke="#000000" d="M-686.0001082813176 -714.19455566999 L-686.0001082813176 -707.1285658222744 L-672.0609686076715 -710.333422083057 L-672.0609686076715 -717.3994119307727 z"/>
<path fill="#000000" stroke="#000000" d="M-699.5113760238876 -710.1755800925985 L-699.5113760238876 -703.1095902448826 L-686.0001082813176 -707.1285658222743 L-686.0001082813176 -714.1945556699901 z"/>
<path fill="#000000" stroke="#000000" d="M-712.4999999999999 -705.3706754246433 L-712.4999999999999 -698.3046855769275 L-699.5113760238877 -703.1095902448826 L-699.5113760238877 -710.1755800925984 z"/>
<path fill="#000000" stroke="#000000" d="M-724.8748743447755 -699.813544620051 L-724.8748743447755 -692.7475547723353 L-712.4999999999999 -698.3046855769276 L-712.4999999999999 -705.3706754246432 z"/>
<path fill="#000000" stroke="#000000" d="M-736.5491982060208 -693.5431669586227 L-736.5491982060208 -686.4771771109071 L-724.8748743447757 -692.7475547723351 L-724.8748743447757 -699.8135446200508 z"/>
<path fill="#000000" stroke="#000000" d="M-747.441084589839 -686.6035246343937 L-747.441084589839 -679.5375347866778 L-736.5491982060207 -686.4771771109071 L-736.5491982060208 -693.5431669586227 z"/>
<path fill="#000000" stroke="#000000" d="M-757.4741347390575 -679.0432942521418 L-757.4741347390575 -671.9773044044259 L-747.4410845898391 -679.5375347866778 L-747.441084589839 -686.6035246343937 z"/>
<path fill="#000000" stroke="#000000" d="M-766.5779740156158 -670.9155053959806 L-766.5779740156158 -663.8495155482649 L-757.4741347390574 -671.977304404426 L-757.4741347390574 -679.0432942521418 z"/>
<path fill="#000000" stroke="#000000" d="M-774.6887455280887 -662.2771686649281 L-774.6887455280887 -655.2111788172123 L-766.5779740156158 -663.8495155482649 L-766.5779740156158 -670.9155053959806 z"/>
<path fill="#000000" stroke="#000000" d="M-781.7495580418972 -653.1888757845157 L-781.7495580418972 -646.1228859368 L-774.6887455280887 -655.2111788172124 L-774.6887455280887 -662.277168664928 z"/>
<path fill="#000000" stroke="#000000" d="M-787.710885030444 -643.7143745993708 L-787.7108850304439 -636.648384751655 L-781.7495580418972 -646.1228859368001 L-781.7495580418972 -653.1888757845157 z"/>
<path fill="#000000" stroke="#000000" d="M-792.5309120681118 -633.9201219278867 L-792.5309120681118 -626.854132080171 L-787.7108850304439 -636.648384751655 L-787.710885030444 -643.7143745993707 z"/>
<path fill="#000000" stroke="#000000" d="M-796.175830128416 -623.8748174153936 L-796.175830128416 -616.808827567678 L-792.5309120681118 -626.854132080171 L-792.5309120681118 -633.9201219278867 z"/>
<path fill="#000000" stroke="#000000" d="M-798.6200727300336 -613.6489216555051 L-798.6200727300336 -606.5829318077894 L-796.175830128416 -616.8088275676779 L-796.175830128416 -623.8748174153936 z"/>
<path fill="#000000" stroke="#000000" d="M-799.8464952673002 -603.3141619596809 L-799.8464952673002 -596.248172111965 L-798.6200727300336 -606.5829318077894 L-798.6200727300336 -613.648921655505 z"/>
<path fill="#000000" stroke="#000000" d="M-799.8464952673002 595.8488489309161 L-799.8464952673002 602.9148387786319 L-799.8464952673002 -596.2481721119651 L-799.8464952673002 -603.3141619596809 z"/>
<path fill="#000000" stroke="#000000" d="M-798.6200727300336 606.1836086267404 L-798.6200727300336 613.2495984744561 L-799.8464952673002 602.9148387786317 L-799.8464952673002 595.8488489309161 z"/>
<path fill="#000000" stroke="#000000" d="M-796.175830128416 616.4095043866288 L-796.175830128416 623.4754942343445 L-798.6200727300336 613.2495984744561 L-798.6200727300336 606.1836086267404 z"/>
<path fill="#000000" stroke="#000000" d="M-792.5309120681118 626.454808899122 L-792.5309120681118 633.5207987468376 L-796.175830128416 623.4754942343445 L-796.175830128416 616.4095043866288 z"/>
<path fill="#000000" stroke="#000000" d="M-787.7108850304439 636.2490615706058 L-787.7108850304439 643.3150514183216 L-792.5309120681118 633.5207987468377 L-792.5309120681118 626.454808899122 z"/>
<path fill="#000000" stroke="#000000" d="M-781.7495580418972 645.723562755751 L-781.7495580418973 652.7895526034666 L-787.710885030444 643.3150514183217 L-787.710885030444 636.2490615706058 z"/>
<path fill="#000000" stroke="#000000" d="M-774.6887455280887 654.8118556361632 L-774.6887455280887 661.8778454838789 L-781.7495580418973 652.7895526034666 L-781.7495580418973 645.7235627557509 z"/>
<path fill="#000000" stroke="#000000" d="M-766.5779740156158 663.4501923672158 L-766.577974015616 670.5161822149315 L-774.6887455280887 661.8778454838789 L-774.6887455280887 654.8118556361632 z"/>
<path fill="#000000" stroke="#000000" d="M-757.4741347390575 671.5779812233769 L-757.4741347390575 678.6439710710927 L-766.5779740156158 670.5161822149315 L-766.577974015616 663.4501923672158 z"/>
<path fill="#000000" stroke="#000000" d="M-747.4410845898391 679.1382116056286 L-747.4410845898391 686.2042014533445 L-757.4741347390576 678.6439710710927 L-757.4741347390576 671.5779812233768 z"/>
<path fill="#000000" stroke="#000000" d="M-736.549198206021 686.077853929858 L-736.549198206021 693.1438437775736 L-747.4410845898391 686.2042014533445 L-747.4410845898392 679.1382116056286 z"/>
<path fill="#000000" stroke="#000000" d="M-724.8748743447758 692.348231591286 L-724.8748743447758 699.4142214390017 L-736.549198206021 693.1438437775736 L-736.549198206021 686.077853929858 z"/>
<path fill="#000000" stroke="#000000" d="M-712.5000000000001 697.9053623958783 L-712.5000000000001 704.9713522435941 L-724.8748743447757 699.4142214390018 L-724.8748743447757 692.3482315912861 z"/>
<path fill="#000000" stroke="#000000" d="M-699.5113760238879 702.7102670638334 L-699.5113760238879 709.7762569115491 L-712.5000000000001 704.9713522435941 L-712.5000000000001 697.9053623958783 z"/>
<path fill="#000000" stroke="#000000" d="M-686.0001082813178 706.729242641225 L-686.0001082813178 713.7952324889409 L-699.5113760238879 709.7762569115492 L-699.5113760238879 702.7102670638334 z"/>
<path fill="#000000" stroke="#000000" d="M-672.0609686076718 709.9340989020078 L-672.0609686076718 717.0000887497235 L-686.0001082813179 713.7952324889409 L-686.0001082813179 706.7292426412251 z"/>
<path fill="#000000" stroke="#000000" d="M-657.7917300525021 712.3023560821982 L-657.7917300525021 719.3683459299139 L-672.0609686076717 717.0000887497235 L-672.0609686076717 709.9340989020078 z"/>
<path fill="#000000" stroke="#000000" d="M-643.2924810718397 713.8174025592675 L-643.2924810718397 720.8833924069831 L-657.7917300525021 719.3683459299137 L-657.7917300525021 712.3023560821981 z"/>
<path fill="#000000" stroke="#000000" d="M-628.6649234795879 714.4686113707387 L-628.6649234795879 721.5346012184544 L-643.2924810718397 720.8833924069831 L-643.2924810718397 713.8174025592674 z"/>
<path fill="#000000" stroke="#000000" d="M-625 714.4142883914858 L-628.6649234795879 714.4686113707386 L-643.2924810718397 713.8174025592674 L-657.7917300525021 712.302356082198 L-672.0609686076718 709.9340989020076 L-686.0001082813179 706.729242641225 L-699.511376023888 702.7102670638334 L-712.5000000000002 697.9053623958782 L-724.8748743447757 692.3482315912859 L-736.5491982060208 686.077853929858 L-747.4410845898391 679.1382116056287 L-757.4741347390575 671.5779812233769 L-766.5779740156158 663.4501923672158 L-774.6887455280887 654.8118556361632 L-781.7495580418972 645.723562755751 L-787.7108850304439 636.2490615706058 L-792.5309120681118 626.454808899122 L-796.175830128416 616.4095043866289 L-798.6200727300336 606.1836086267404 L-799.8464952673002 595.8488489309161 L-799.8464952673002 -603.3141619596809 L-798.6200727300336 -613.6489216555051 L-796.175830128416 -623.8748174153936 L-792.5309120681118 -633.9201219278867 L-787.7108850304439 -643.7143745993707 L-781.7495580418972 -653.1888757845159 L-774.6887455280887 -662.277168664928 L-766.5779740156158 -670.9155053959806 L-757.4741347390574 -679.0432942521418 L-747.441084589839 -686.6035246343937 L-736.5491982060207 -693.5431669586228 L-724.8748743447755 -699.8135446200508 L-712.5 -705.3706754246431 L-699.5113760238877 -710.1755800925982 L-686.0001082813177 -714.1945556699899 L-672.0609686076715 -717.3994119307725 L-657.7917300525019 -719.7676691109629 L-643.2924810718393 -721.2827155880321 L-628.6649234795875 -721.9339243995034 L-625 -721.8796014202505 z"/>
<path fill="#000000" stroke="#000000" d="M-625 721.4802782392015 L-625 -714.8136115725348 L-628.6649234795875 -714.8679345517877 L-643.2924810718393 -714.2167257403164 L-657.7917300525019 -712.7016792632471 L-672.0609686076715 -710.3334220830568 L-686.0001082813177 -707.1285658222741 L-699.5113760238877 -703.1095902448825 L-712.5 -698.3046855769273 L-724.8748743447755 -692.7475547723351 L-736.5491982060207 -686.4771771109071 L-747.441084589839 -679.537534786678 L-757.4741347390574 -671.977304404426 L-766.5779740156158 -663.8495155482649 L-774.6887455280887 -655.2111788172123 L-781.7495580418972 -646.1228859368001 L-787.7108850304439 -636.6483847516549 L-792.5309120681118 -626.854132080171 L-796.175830128416 -616.8088275676779 L-798.6200727300336 -606.5829318077894 L-799.8464952673002 -596.248172111965 L-799.8464952673002 602.9148387786319 L-798.6200727300336 613.2495984744561 L-796.175830128416 623.4754942343446 L-792.5309120681118 633.5207987468377 L-787.7108850304439 643.3150514183216 L-781.7495580418972 652.7895526034667 L-774.6887455280887 661.8778454838789 L-766.5779740156158 670.5161822149315 L-757.4741347390575 678.6439710710927 L-747.4410845898391 686.2042014533445 L-736.5491982060208 693.1438437775737 L-724.8748743447757 699.4142214390017 L-712.5000000000002 704.971352243594 L-699.511376023888 709.7762569115491 L-686.0001082813179 713.7952324889408 L-672.0609686076718 717.0000887497233 L-657.7917300525021 719.3683459299137 L-643.2924810718397 720.8833924069831 L-628.6649234795879 721.5346012184543 z"/>
</svg>